<svg width="201" height="200" viewBox="0 0 201 200" fill="none" xmlns="http://www.w3.org/2000/svg">
    <path d="M200.5 100C200.5 155.228 155.728 200 100.5 200C45.2715 200 0.5 155.228 0.5 100C0.5 44.7715 45.2715 0 100.5 0C155.728 0 200.5 44.7715 200.5 100ZM22.6994 100C22.6994 142.968 57.5319 177.801 100.5 177.801C143.468 177.801 178.301 142.968 178.301 100C178.301 57.0319 143.468 22.1994 100.5 22.1994C57.5319 22.1994 22.6994 57.0319 22.6994 100Z" fill="#D9D9D9"/>
    <path d="M200.5 100C200.5 155.228 155.728 200 100.5 200C45.2715 200 0.5 155.228 0.5 100C0.5 44.7715 45.2715 0 100.5 0C155.728 0 200.5 44.7715 200.5 100ZM22.6994 100C22.6994 142.968 57.5319 177.801 100.5 177.801C143.468 177.801 178.301 142.968 178.301 100C178.301 57.0319 143.468 22.1994 100.5 22.1994C57.5319 22.1994 22.6994 57.0319 22.6994 100Z" fill="#F8F8FD"/>
    <path d="M200.5 100C200.5 81.4257 195.327 63.2184 185.56 47.419C175.794 31.6196 161.82 18.8526 145.205 10.549L135.281 30.4066C148.207 36.8669 159.079 46.7997 166.677 59.0917C174.276 71.3837 178.301 85.5491 178.301 100H200.5Z" fill="#4640DE"/>
</svg>
