<svg width="24" height="24" viewBox="0 0 24 24" fill="none" xmlns="http://www.w3.org/2000/svg">
<path d="M10.125 1.125H22.875V22.875H10.125V1.125Z" fill="#F2F8FF"/>
<path opacity="0.06" d="M10.125 4.0492V19.602C12.7999 20.3032 15.7639 19.6136 17.8601 17.517C21.0022 14.3748 21.0022 9.28045 17.8601 6.13833C15.7639 4.04208 12.7999 3.34833 10.125 4.0492Z" fill="#303030"/>
<path d="M16.9448 7.05509C14.898 5.00834 11.8639 4.55084 9.37578 5.68259L8.62578 6.08309C8.18966 6.35271 7.77716 6.67709 7.39878 7.05546C4.76291 9.69134 4.76291 13.9652 7.39878 16.6015C10.0347 19.2373 14.3085 19.2373 16.9448 16.6015C19.5807 13.9652 19.5807 9.69134 16.9448 7.05509Z" fill="#4640DE"/>
<path d="M15.884 8.11572C13.8338 6.06559 10.5095 6.06559 8.45934 8.11572C8.38734 8.18772 8.31759 8.26159 8.25047 8.33659L7.74797 8.99884C6.44597 11.0306 6.68297 13.7636 8.45934 15.5403C10.5095 17.5905 13.8338 17.5905 15.884 15.5403C17.9345 13.4898 17.9345 10.1658 15.884 8.11572Z" fill="#F2F8FF"/>
<path d="M1.56431 20.3128C0.978562 20.8985 0.978562 21.8484 1.56431 22.4342C2.15006 23.0199 3.09994 23.0199 3.68569 22.4342L5.80706 20.3128L3.68569 18.1914L1.56431 20.3128Z" fill="#4640DE"/>
<path d="M6.45947 15.418L4.74609 17.1313L6.86747 19.2527L8.58084 17.5393C8.16159 17.2753 7.76297 16.966 7.39772 16.6011C7.03247 16.2362 6.72347 15.8372 6.45947 15.418Z" fill="#4640DE"/>
<path d="M4.47938 16.8681C4.1865 16.5752 3.71175 16.5752 3.41888 16.8681C3.126 17.161 3.126 17.6357 3.41888 17.9286L3.684 18.1937L5.80538 20.3151L6.0705 20.5802C6.36338 20.8731 6.83813 20.8731 7.131 20.5802C7.42388 20.2873 7.42388 19.8126 7.131 19.5197L6.86588 19.2546L4.7445 17.1332L4.47938 16.8681Z" fill="#302AC7"/>
<path d="M12.375 11.625C13.2034 11.625 13.875 10.9534 13.875 10.125C13.875 9.29657 13.2034 8.625 12.375 8.625C11.5466 8.625 10.875 9.29657 10.875 10.125C10.875 10.9534 11.5466 11.625 12.375 11.625Z" fill="#7C77E9"/>
<path d="M9.75 14.25V14.625H15V14.25C15 12.8003 13.8247 11.625 12.375 11.625C10.9253 11.625 9.75 12.8003 9.75 14.25Z" fill="#7C77E9"/>
<path opacity="0.12" d="M12.375 8.625C12.2449 8.625 12.1204 8.64675 12 8.67788C12.6458 8.84513 13.125 9.42675 13.125 10.125C13.125 10.8233 12.6458 11.4045 12 11.5721C12.1204 11.6032 12.2449 11.625 12.375 11.625C13.2034 11.625 13.875 10.9534 13.875 10.125C13.875 9.29662 13.2034 8.625 12.375 8.625Z" fill="#303030"/>
<path opacity="0.12" d="M12.375 11.625C12.2475 11.625 12.1226 11.6374 12 11.655C13.2716 11.8372 14.25 12.9281 14.25 14.25V14.625H15V14.25C15 12.8003 13.8247 11.625 12.375 11.625Z" fill="#303030"/>
<path opacity="0.5" d="M3.68738 22.435L5.80875 20.3136L6.04537 20.5502C6.30937 20.8142 6.735 20.8787 7.038 20.6605C7.42425 20.3822 7.4565 19.84 7.13438 19.5178L6.86925 19.2527L8.58263 17.5393C8.16338 17.2753 7.76475 16.966 7.3995 16.6011C7.03425 16.2362 6.72525 15.8372 6.46125 15.418L5.44238 16.4368L3.94875 20.2772C3.57225 21.2451 2.9745 22.111 2.20312 22.8062C2.71312 22.9566 3.28538 22.8373 3.68738 22.435Z" fill="#302AC7"/>
<path d="M21 3.375H13.125C12.918 3.375 12.75 3.207 12.75 3C12.75 2.793 12.918 2.625 13.125 2.625H21C21.207 2.625 21.375 2.793 21.375 3C21.375 3.207 21.207 3.375 21 3.375Z" fill="#E7E8F7"/>
<path d="M21 5.25H18.375C18.168 5.25 18 5.082 18 4.875C18 4.668 18.168 4.5 18.375 4.5H21C21.207 4.5 21.375 4.668 21.375 4.875C21.375 5.082 21.207 5.25 21 5.25Z" fill="#E7E8F7"/>
</svg>
