<svg width="9" height="6" viewBox="0 0 9 6" fill="none" xmlns="http://www.w3.org/2000/svg">
<path fill-rule="evenodd" clip-rule="evenodd" d="M0.0348478 0.0390995C0.0540202 0.0606114 0.663338 0.734005 1.38892 1.53554C2.1145 2.33709 2.70814 2.99609 2.70814 3C2.70814 3.00391 2.1145 3.66291 1.38892 4.46445C0.663338 5.266 0.0540202 5.9394 0.0348478 5.9609L0 6L1.26208 5.99977L2.52415 5.99954L3.8729 4.50819C4.6147 3.68795 5.22165 3.00927 5.22165 3C5.22165 2.99073 4.6147 2.31205 3.8729 1.49181L2.52415 0.000454998L1.26208 0.000227472L0 0L0.0348478 0.0390995ZM3.78094 0.0106635C3.7811 0.0165355 4.38605 0.68963 5.12529 1.50644C5.86451 2.32325 6.46935 2.99535 6.46935 3C6.46935 3.00465 5.86451 3.67675 5.12529 4.49356C4.38605 5.31037 3.7811 5.98346 3.78094 5.98934C3.78076 5.99521 4.34423 6 5.03308 6H6.28553L7.64277 4.5L9 3L7.64277 1.5L6.28553 0H5.03308C4.34423 0 3.78076 0.00479147 3.78094 0.0106635Z" fill="url(#paint0_linear_3165_128350)"/>
<defs>
<linearGradient id="paint0_linear_3165_128350" x1="9" y1="-10.5" x2="-0.284086" y2="-10.4578" gradientUnits="userSpaceOnUse">
<stop stop-color="#7938C9"/>
<stop offset="1" stop-color="#20DBFE"/>
</linearGradient>
</defs>
</svg>
