<svg width="45" height="45" viewBox="0 0 45 45" fill="none" xmlns="http://www.w3.org/2000/svg">
<path fill-rule="evenodd" clip-rule="evenodd" d="M33.8283 15.9983C33.6552 15.8097 33.3611 15.8065 33.1779 15.9853C32.9946 16.1641 32.9916 16.4571 33.1644 16.6459C34.6567 18.2766 35.7571 20.2266 36.3817 22.3469C36.454 22.5925 36.7064 22.7413 36.9542 22.6768C37.2019 22.6124 37.3512 22.359 37.2793 22.1133C36.6136 19.8372 35.4327 17.7447 33.8283 15.9983ZM26.9544 40.7448C27.0314 40.989 26.896 41.25 26.6496 41.3196C23.8959 42.0974 20.9799 42.0952 18.2274 41.3132C17.9812 41.2433 17.8461 40.982 17.9234 40.738C18.0007 40.4939 18.2611 40.3595 18.5075 40.429C21.0781 41.154 23.7992 41.156 26.3708 40.435C26.6173 40.3659 26.8775 40.5007 26.9544 40.7448ZM8.0914 22.153C7.84615 22.0796 7.70619 21.8209 7.78695 21.578C8.55976 19.2531 9.87447 17.1452 11.6224 15.4284C11.805 15.249 12.0989 15.261 12.2727 15.4489C12.4465 15.6368 12.4345 15.9296 12.2522 16.1093C10.6256 17.713 9.40015 19.6779 8.67549 21.8441C8.59427 22.0868 8.33665 22.2264 8.0914 22.153Z" fill="#004FA8"/>
<circle cx="22.4621" cy="13.6145" r="9.27852" fill="#57A5FF"/>
<circle cx="11.8488" cy="32.0363" r="9.27852" fill="#57A5FF"/>
<circle cx="33.1417" cy="32.3566" r="9.34096" fill="#57A5FF"/>
<path d="M33.1421 37.7261C28.5815 37.7261 24.7867 34.2844 23.967 29.7344C23.8596 30.3313 23.8008 30.9466 23.8008 31.5766C23.8008 37.008 27.983 41.4106 33.1417 41.4106C38.3004 41.4106 42.4827 37.008 42.4827 31.5766C42.4827 30.9466 42.4243 30.3313 42.3168 29.7344C41.4975 34.2844 37.7027 37.7261 33.1421 37.7261Z" fill="#318EF9"/>
<path d="M22.525 19.2076C17.9949 19.2076 14.2254 15.7268 13.4112 11.125C13.3045 11.7287 13.2461 12.351 13.2461 12.9882C13.2461 18.4813 17.4004 22.934 22.5246 22.934C27.6488 22.934 31.8031 18.4813 31.8031 12.9882C31.8031 12.351 31.7451 11.7287 31.6384 11.125C30.8245 15.7268 27.0551 19.2076 22.525 19.2076Z" fill="#318EF9"/>
<path d="M11.9116 37.7261C7.35104 37.7261 3.55621 34.2844 2.73655 29.7344C2.62911 30.3313 2.57031 30.9466 2.57031 31.5766C2.57031 37.008 6.75257 41.4106 11.9113 41.4106C17.07 41.4106 21.2522 37.008 21.2522 31.5766C21.2522 30.9466 21.1938 30.3313 21.0863 29.7344C20.267 34.2844 16.4722 37.7261 11.9116 37.7261Z" fill="#318EF9"/>
<path d="M25.2891 38.0202C22.2678 33.5356 23.4541 27.4508 27.9387 24.4295C32.4233 21.4081 38.5081 22.5944 41.5294 27.0791C44.5507 31.5637 43.3645 37.6485 38.8798 40.6698C34.3952 43.6911 28.3104 42.5048 25.2891 38.0202ZM40.7986 27.5714C38.0492 23.4904 32.5121 22.4109 28.431 25.1603C24.35 27.9097 23.2705 33.4468 26.0199 37.5278C28.7693 41.6089 34.3065 42.6884 38.3875 39.939C42.4685 37.1896 43.548 31.6524 40.7986 27.5714Z" fill="#004FA8"/>
<path d="M3.79301 37.6843C0.771697 33.1996 1.95796 27.1148 6.4426 24.0935C10.9272 21.0722 17.012 22.2585 20.0333 26.7431C23.0546 31.2278 21.8684 37.3125 17.3837 40.3339C12.8991 43.3552 6.81432 42.1689 3.79301 37.6843ZM19.3025 27.2355C16.5531 23.1544 11.016 22.0749 6.93495 24.8243C2.85393 27.5737 1.77443 33.1109 4.52382 37.1919C7.27322 41.2729 12.8104 42.3524 16.8914 39.603C20.9724 36.8536 22.0519 31.3165 19.3025 27.2355Z" fill="#004FA8"/>
<path d="M14.5391 19.1491C11.5178 14.6645 12.7041 8.57968 17.1887 5.55837C21.6733 2.53705 27.7581 3.72332 30.7794 8.20796C33.8007 12.6926 32.6145 18.7774 28.1298 21.7987C23.6452 24.82 17.5604 23.6337 14.5391 19.1491ZM30.0486 8.70031C27.2992 4.61929 21.7621 3.53979 17.681 6.28918C13.6 9.03858 12.5205 14.5757 15.2699 18.6568C18.0193 22.7378 23.5565 23.8173 27.6375 21.0679C31.7185 18.3185 32.798 12.7813 30.0486 8.70031Z" fill="#004FA8"/>
<path d="M23.9191 19.2701C23.2953 19.2701 20.3893 19.1666 18.5315 17.3088C16.4856 15.2632 16.5672 11.9455 16.5718 11.8052C16.5785 11.5971 16.7459 11.4296 16.954 11.423C17.0951 11.4202 20.4115 11.3366 22.4576 13.3827C24.5036 15.4285 24.4219 18.7461 24.4173 18.8864C24.4107 19.0947 24.2432 19.262 24.0351 19.2686C24.0221 19.269 23.9823 19.2701 23.9191 19.2701ZM17.3699 12.2212C17.4146 13.1133 17.6712 15.3316 19.0902 16.7503C20.5089 18.169 22.727 18.4259 23.6192 18.4706C23.5747 17.5785 23.3181 15.3602 21.8991 13.9414C20.4803 12.5225 18.2623 12.2658 17.3699 12.2212Z" fill="white"/>
<path d="M23.9422 19.1888C23.8411 19.1888 23.7401 19.1502 23.6629 19.0731L20.4673 15.8774C20.313 15.7231 20.313 15.4729 20.4673 15.3189C20.6217 15.1645 20.8717 15.1645 21.0259 15.3189L24.2214 18.5146C24.3758 18.669 24.3758 18.9191 24.2214 19.0731C24.1443 19.1502 24.0433 19.1888 23.9422 19.1888Z" fill="white"/>
<path d="M24.9581 19.0778C24.7797 19.0778 24.618 18.9562 24.5743 18.7753C24.5232 18.5631 24.6537 18.3498 24.8658 18.2986C25.7133 18.0945 26.3911 17.7426 26.8808 17.2533C27.8295 16.3043 28.0436 14.8529 28.0907 14.1595C27.3965 14.2078 25.9414 14.4235 24.9963 15.3686C24.895 15.4701 24.7985 15.5808 24.7095 15.6979C24.5778 15.8719 24.33 15.9055 24.156 15.7734C23.9822 15.6415 23.9486 15.3938 24.0805 15.22C24.191 15.0744 24.3112 14.9365 24.4378 14.8101C25.9549 13.293 28.4061 13.3529 28.5105 13.3567C28.7186 13.3633 28.8861 13.5308 28.8927 13.7389C28.896 13.8425 28.9562 16.2947 27.4393 17.8118C26.8454 18.4057 26.0418 18.8279 25.051 19.0666C25.0198 19.0741 24.9886 19.0778 24.9581 19.0778Z" fill="white"/>
<path d="M24.9491 13.4719C24.7582 13.4719 24.5903 13.3332 24.5595 13.1387C24.3615 11.8889 23.5576 10.8368 23.13 10.3522C22.8434 10.6774 22.3876 11.2574 22.0594 11.9782C21.9692 12.1766 21.7351 12.2643 21.5361 12.174C21.3375 12.0836 21.2498 11.8493 21.3404 11.6507C21.9188 10.3807 22.8213 9.52557 22.8595 9.4897C23.0115 9.34703 23.2481 9.34734 23.4001 9.4897C23.4663 9.55195 25.026 11.0345 25.3395 13.0152C25.3738 13.2305 25.2267 13.4329 25.0112 13.4669C24.9905 13.4705 24.9696 13.4719 24.9491 13.4719Z" fill="white"/>
<path d="M16.7485 31.9465C16.9621 31.7365 17.0845 31.4644 17.0845 31.1744C17.0845 30.5268 16.4712 30 15.7172 30C14.9634 30 14.35 30.5268 14.35 31.1744C14.35 31.4644 14.4725 31.7365 14.686 31.9465C14.2198 31.9982 13.8241 32.2433 13.6086 32.5842C13.3932 32.2433 12.9975 31.9982 12.5313 31.9465C12.7448 31.7365 12.8673 31.4644 12.8673 31.1744C12.8673 30.5268 12.2539 30 11.5 30C10.7462 30 10.1328 30.5268 10.1328 31.1744C10.1328 31.4644 10.2553 31.7365 10.4688 31.9465C10.0026 31.9982 9.60678 32.2433 9.39143 32.5842C9.17602 32.2433 8.7803 31.9982 8.31406 31.9465C8.5276 31.7365 8.65005 31.4644 8.65005 31.1744C8.65005 30.5268 8.03669 30 7.28283 30C6.5289 30 5.91554 30.5268 5.91554 31.1744C5.91554 31.4644 6.03806 31.7365 6.25153 31.9465C5.54646 32.0246 5 32.5437 5 33.1703V34.8503C5 34.933 5.07799 35 5.17423 35H17.8258C17.922 35 18 34.933 18 34.8503V33.1703C18.0001 32.5438 17.4535 32.0248 16.7485 31.9465ZM17.6516 34.7008H13.7829V34.3128C13.7829 34.2302 13.7049 34.1632 13.6086 34.1632C13.5124 34.1632 13.4344 34.2302 13.4344 34.3128V34.7008H9.56566V34.3128C9.56566 34.2302 9.48768 34.1632 9.39143 34.1632C9.29519 34.1632 9.2172 34.2302 9.2172 34.3128V34.7008H5.34846V33.1703C5.34846 32.655 5.83658 32.2357 6.43656 32.2357H6.73721C6.81764 32.2357 6.88761 32.1884 6.90656 32.1213C6.92545 32.0542 6.88851 31.9846 6.81701 31.9529C6.47587 31.802 6.26393 31.5037 6.26393 31.1744C6.26393 30.6919 6.72104 30.2993 7.28276 30.2993C7.84448 30.2993 8.30152 30.6919 8.30152 31.1744C8.30152 31.5037 8.08959 31.802 7.74844 31.9529C7.67701 31.9845 7.64 32.0541 7.65896 32.1212C7.67785 32.1884 7.74789 32.2356 7.82831 32.2356H8.12889C8.72887 32.2356 9.21706 32.6549 9.21706 33.1703C9.21706 33.2529 9.29505 33.3199 9.39129 33.3199C9.48754 33.3199 9.56552 33.2529 9.56552 33.1703C9.56552 32.6549 10.0536 32.2356 10.6536 32.2356H10.9543C11.0347 32.2356 11.1047 32.1883 11.1236 32.1212C11.1425 32.0541 11.1056 31.9845 11.0341 31.9529C10.6929 31.802 10.4811 31.5037 10.4811 31.1744C10.4811 30.6918 10.9381 30.2992 11.4998 30.2992C12.0615 30.2992 12.5186 30.6918 12.5186 31.1744C12.5186 31.5036 12.3067 31.802 11.9656 31.9529C11.8941 31.9845 11.8571 32.054 11.876 32.1212C11.8949 32.1884 11.9649 32.2356 12.0454 32.2356H12.346C12.946 32.2356 13.4341 32.6549 13.4341 33.1703C13.4341 33.2529 13.5121 33.3199 13.6084 33.3199C13.7046 33.3199 13.7826 33.2529 13.7826 33.1703C13.7826 32.6549 14.2708 32.2356 14.8708 32.2356H15.1713C15.2517 32.2356 15.3217 32.1883 15.3407 32.1212C15.3596 32.0541 15.3226 31.9845 15.2512 31.9529C14.9101 31.802 14.6981 31.5037 14.6981 31.1744C14.6981 30.6919 15.1552 30.2993 15.7169 30.2993C16.2786 30.2993 16.7357 30.6919 16.7357 31.1744C16.7357 31.5037 16.5238 31.802 16.1827 31.9529C16.1112 31.9845 16.0742 32.0541 16.0932 32.1212C16.112 32.1884 16.1821 32.2356 16.2625 32.2356H16.5631C17.1631 32.2356 17.6512 32.6549 17.6512 33.1703V34.7008H17.6516Z" fill="white" stroke="white" stroke-width="0.2"/>
<path d="M35.4697 31.3113C35.9501 30.8757 36.2315 30.2615 36.2315 29.6007C36.2315 28.3109 35.1545 27.2617 33.8307 27.2617C32.507 27.2617 31.4299 28.3109 31.4299 29.6007C31.4299 30.2615 31.7114 30.8756 32.1918 31.3113C30.8339 31.3522 29.7422 32.4411 29.7422 33.7737V37.2865C29.7422 37.395 29.8325 37.483 29.9439 37.483H37.7175C37.8289 37.483 37.9192 37.395 37.9192 37.2865V33.7737C37.9193 32.4411 36.8275 31.3522 35.4697 31.3113ZM37.5159 37.0899H30.1455V33.7736C30.1455 32.6319 31.099 31.703 32.2708 31.703H32.825C32.9181 31.703 32.9991 31.6409 33.0211 31.5528C33.043 31.4647 33.0002 31.3734 32.9174 31.3318C32.2486 30.9962 31.8333 30.3329 31.8333 29.6006C31.8333 28.5276 32.7294 27.6546 33.8307 27.6546C34.9321 27.6546 35.8282 28.5276 35.8282 29.6006C35.8282 30.3329 35.4128 30.9962 34.7441 31.3318C34.6613 31.3733 34.6185 31.4646 34.6404 31.5528C34.6623 31.641 34.7433 31.703 34.8364 31.703H35.3906C36.5625 31.703 37.5159 32.6319 37.5159 33.7736V37.0899Z" fill="white" stroke="white" stroke-width="0.2"/>
<path d="M33.8324 36.4626C33.7781 36.4626 33.7263 36.4394 33.6896 36.3986C33.5298 36.2212 32.1289 34.6414 32.1289 33.7755C32.1289 33.1907 32.594 32.7148 33.1658 32.7148C33.4137 32.7148 33.6475 32.8035 33.8324 32.9636C34.0174 32.8035 34.2512 32.7148 34.4991 32.7148C35.0708 32.7148 35.536 33.1906 35.536 33.7755C35.536 34.6414 34.135 36.2212 33.9753 36.3986C33.9384 36.4395 33.8866 36.4626 33.8324 36.4626ZM33.1658 33.1123C32.8083 33.1123 32.5173 33.4099 32.5173 33.7756C32.5173 34.3169 33.3655 35.4204 33.8324 35.9662C34.2992 35.4204 35.1474 34.3169 35.1474 33.7756C35.1474 33.4099 34.8565 33.1123 34.499 33.1123C34.2973 33.1123 34.1103 33.2067 33.9861 33.3712C33.9493 33.4199 33.8925 33.4485 33.8323 33.4485C33.7721 33.4485 33.7154 33.4199 33.6785 33.3712C33.5544 33.2067 33.3675 33.1123 33.1658 33.1123Z" fill="white" stroke="white" stroke-width="0.2"/>
</svg>
