<svg width="45" height="45" viewBox="0 0 45 45" fill="none" xmlns="http://www.w3.org/2000/svg">
<path d="M39.375 8.4375H5.625C5.23687 8.4375 4.92188 8.7525 4.92188 9.14062V30.9375H7.73438H35.8594H40.0781V9.14062C40.0781 8.7525 39.7631 8.4375 39.375 8.4375Z" fill="#004FA8"/>
<path d="M40.0781 30.9375H37.2656H7.73438H4.92188H2.10938C2.10938 34.0439 4.62797 36.5625 7.73438 36.5625H37.2656C40.372 36.5625 42.8906 34.0439 42.8906 30.9375H40.0781Z" fill="#004FA8"/>
<path d="M7.73438 11.25H37.2656V30.9375H7.73438V11.25Z" fill="#F2F8FF"/>
<path d="M16.7984 22.7559L19.6875 22.1484V18.6328L16.7984 18.0253C16.1838 17.8959 15.8991 17.183 16.2555 16.6662L17.9297 14.2383L15.293 11.6016L12.8644 13.2757C12.3476 13.6322 11.6346 13.3474 11.5052 12.7329L10.8984 9.84375H7.73438V16.4173C8.17453 16.2612 8.64703 16.1719 9.14062 16.1719C11.4708 16.1719 13.3594 18.0605 13.3594 20.3906C13.3594 22.7208 11.4708 24.6094 9.14062 24.6094C8.64703 24.6094 8.17453 24.5201 7.73438 24.364V30.9375H10.8984L11.5059 28.0484C11.6353 27.4338 12.3483 27.1491 12.8651 27.5055L15.293 29.1797L17.9297 26.543L16.2555 24.1144C15.8998 23.5976 16.1845 22.8846 16.7984 22.7559Z" fill="#57A5FF"/>
<path d="M33.885 18.2812C32.9892 15.4287 30.3251 13.3594 27.1765 13.3594C24.5756 13.3594 22.3095 14.7755 21.0938 16.875H27.4219L28.3486 18.1441L29.989 20.3906L27.4219 23.9062H21.0938C22.3102 26.0058 24.5756 27.4219 27.1765 27.4219C30.3244 27.4219 32.9885 25.3526 33.885 22.5H38.6719V18.2812H33.885Z" fill="#57A5FF"/>
<path opacity="0.12" d="M11.4581 13.2757L11.6916 13.1147C11.603 13.0092 11.5369 12.8812 11.5052 12.7329L10.8984 9.84375H9.49219L10.0997 12.7329C10.2284 13.3467 10.9413 13.6315 11.4581 13.2757Z" fill="#303030"/>
<path opacity="0.12" d="M11.4581 27.5038C10.9413 27.1473 10.2284 27.432 10.099 28.0466L9.49219 30.9357H10.8984L11.5059 28.0466C11.5369 27.8982 11.6037 27.7702 11.6923 27.6648L11.4581 27.5038Z" fill="#303030"/>
<path opacity="0.12" d="M16.7988 22.7559L19.688 22.1484V18.6328L16.7988 18.0253C16.1843 17.8959 15.8995 17.183 16.256 16.6662L17.9302 14.2383L15.2934 11.6016L14.4609 12.1753L16.5239 14.2383L14.8498 16.6669C14.4933 17.1837 14.778 17.8966 15.3926 18.026L18.2817 18.6328V22.1484L15.3926 22.7559C14.778 22.8853 14.4933 23.5983 14.8498 24.1151L16.5239 26.543L14.4609 28.6059L15.2934 29.1797L17.9302 26.543L16.256 24.1144C15.9002 23.5976 16.185 22.8846 16.7988 22.7559Z" fill="#303030"/>
<path opacity="0.12" d="M4.92188 28.125H40.0781V30.9375H4.92188V28.125Z" fill="#303030"/>
<path opacity="0.12" d="M33.885 18.2812C32.9892 15.4287 30.3251 13.3594 27.1765 13.3594C24.5756 13.3594 22.3095 14.7755 21.0938 16.875H22.1667C23.4408 15.5749 25.2127 14.7656 27.1772 14.7656C30.3251 14.7656 32.9892 16.8349 33.8857 19.6875H38.6719V18.2812H33.885Z" fill="#303030"/>
<path opacity="0.12" d="M27.4219 25.3125L29.989 21.7969L29.4757 21.0938L27.4219 23.9062H21.0938C21.3912 24.4202 21.7533 24.8913 22.1667 25.3125H27.4219Z" fill="#303030"/>
<path d="M32.3281 34.4531H12.6406C12.2525 34.4531 11.9375 34.1381 11.9375 33.75C11.9375 33.3619 12.2525 33.0469 12.6406 33.0469H32.3281C32.7162 33.0469 33.0312 33.3619 33.0312 33.75C33.0312 34.1388 32.7162 34.4531 32.3281 34.4531Z" fill="#F2F8FF"/>
<path opacity="0.12" d="M37.2656 34.4531H7.73438C5.37398 34.4531 3.35672 32.9984 2.52211 30.9375H2.10938C2.10938 34.0439 4.62797 36.5625 7.73438 36.5625H37.2656C40.372 36.5625 42.8906 34.0439 42.8906 30.9375H42.4779C41.6433 32.9984 39.626 34.4531 37.2656 34.4531Z" fill="#303030"/>
</svg>
