<svg width="13" height="14" viewBox="0 0 13 14" fill="none" xmlns="http://www.w3.org/2000/svg">
<g clip-path="url(#clip0_4269_65601)">
<path d="M2.16797 9.16797L2.16797 5.3763L2.16797 1.58464L10.1514 1.58464C10.8456 1.58464 11.2201 2.39886 10.7683 2.9259L8.66797 5.3763L10.7683 7.8267C11.2201 8.35375 10.8456 9.16797 10.1514 9.16797L2.16797 9.16797Z" fill="#219653"/>
<path d="M2.16797 1.04167C2.16797 0.742513 2.41048 0.5 2.70964 0.5C3.00879 0.5 3.2513 0.742512 3.2513 1.04167L3.2513 12.9583C3.2513 13.2575 3.00879 13.5 2.70964 13.5C2.41048 13.5 2.16797 13.2575 2.16797 12.9583L2.16797 1.04167Z" fill="#219653"/>
</g>
<defs>
<clipPath id="clip0_4269_65601">
<rect width="13" height="13" fill="white" transform="translate(0 0.5)"/>
</clipPath>
</defs>
</svg>
