<svg width="20" height="20" viewBox="0 0 20 20" fill="none" xmlns="http://www.w3.org/2000/svg">
<path fill-rule="evenodd" clip-rule="evenodd" d="M6.86025 6.85931C6.96339 6.75621 7.10326 6.69828 7.2491 6.69828C7.39494 6.69828 7.53481 6.75621 7.63795 6.85931L9.9991 9.22046L12.3603 6.85931C12.411 6.80678 12.4717 6.76488 12.5388 6.73606C12.6059 6.70723 12.6781 6.69206 12.7511 6.69143C12.8241 6.69079 12.8965 6.70471 12.9641 6.73236C13.0317 6.76002 13.0931 6.80086 13.1448 6.8525C13.1964 6.90414 13.2372 6.96555 13.2649 7.03314C13.2926 7.10073 13.3065 7.17316 13.3058 7.24619C13.3052 7.31921 13.29 7.39138 13.2612 7.45849C13.2324 7.52559 13.1905 7.58628 13.1379 7.63701L10.7768 9.99816L13.1379 12.3593C13.2381 12.463 13.2936 12.602 13.2923 12.7462C13.2911 12.8904 13.2332 13.0283 13.1313 13.1303C13.0293 13.2323 12.8913 13.2901 12.7471 13.2914C12.6029 13.2926 12.464 13.2372 12.3603 13.137L9.9991 10.7759L7.63795 13.137C7.53422 13.2372 7.39529 13.2926 7.25108 13.2914C7.10687 13.2901 6.96893 13.2323 6.86695 13.1303C6.76498 13.0283 6.70713 12.8904 6.70588 12.7462C6.70463 12.602 6.76006 12.463 6.86025 12.3593L9.2214 9.99816L6.86025 7.63701C6.75714 7.53387 6.69922 7.39401 6.69922 7.24816C6.69922 7.10232 6.75714 6.96246 6.86025 6.85931Z" fill="#4640DE" stroke="#4640DE"/>
<rect x="1.5" y="1.5" width="17" height="17" rx="8.5" stroke="#4640DE" stroke-width="2"/>
</svg>
