<svg width="39" height="9" viewBox="0 0 39 9" fill="none" xmlns="http://www.w3.org/2000/svg">
    <path d="M1.32375 8H0.26875V0.625H1.99875L4.90875 7.485L4.77875 7.535V0.625H5.83875V8H4.08375L1.18375 1.15L1.32375 1.105V8ZM9.79258 8.1C9.24591 8.1 8.76258 7.98167 8.34258 7.745C7.92591 7.50833 7.59924 7.18333 7.36258 6.77C7.12924 6.35333 7.01258 5.87667 7.01258 5.34C7.01258 4.80667 7.12924 4.335 7.36258 3.925C7.59924 3.51167 7.92591 3.19 8.34258 2.96C8.76258 2.72667 9.24591 2.61 9.79258 2.61C10.3392 2.61 10.8209 2.72667 11.2376 2.96C11.6576 3.19 11.9842 3.51167 12.2176 3.925C12.4542 4.335 12.5726 4.80667 12.5726 5.34C12.5726 5.87667 12.4542 6.35333 12.2176 6.77C11.9842 7.18333 11.6576 7.50833 11.2376 7.745C10.8209 7.98167 10.3392 8.1 9.79258 8.1ZM9.79258 7.17C10.1259 7.17 10.4192 7.095 10.6726 6.945C10.9259 6.795 11.1242 6.58333 11.2676 6.31C11.4109 6.03333 11.4826 5.71 11.4826 5.34C11.4826 4.97333 11.4109 4.655 11.2676 4.385C11.1242 4.115 10.9259 3.90667 10.6726 3.76C10.4192 3.61333 10.1259 3.54 9.79258 3.54C9.46258 3.54 9.16925 3.61333 8.91258 3.76C8.65924 3.90667 8.46091 4.115 8.31758 4.385C8.17424 4.655 8.10258 4.97333 8.10258 5.34C8.10258 5.71 8.17424 6.03333 8.31758 6.31C8.46091 6.58333 8.65924 6.795 8.91258 6.945C9.16925 7.095 9.46258 7.17 9.79258 7.17ZM18.4901 8.105C18.0534 8.105 17.6517 8 17.2851 7.79C16.9184 7.57667 16.6251 7.26333 16.4051 6.85C16.1851 6.43667 16.0751 5.93167 16.0751 5.335C16.0751 4.75167 16.1867 4.25667 16.4101 3.85C16.6334 3.44333 16.9284 3.135 17.2951 2.925C17.6617 2.71167 18.0601 2.605 18.4901 2.605C18.9034 2.605 19.2867 2.705 19.6401 2.905C19.9967 3.105 20.2834 3.38333 20.5001 3.74C20.7167 4.09333 20.8251 4.50167 20.8251 4.965C20.8251 4.97833 20.8251 4.99167 20.8251 5.005C20.8251 5.015 20.8251 5.025 20.8251 5.035L20.1951 5.055C20.1951 5.045 20.1951 5.035 20.1951 5.025C20.1951 5.01167 20.1951 5 20.1951 4.99C20.1951 4.71333 20.1251 4.46833 19.9851 4.255C19.8451 4.03833 19.6601 3.86833 19.4301 3.745C19.2034 3.61833 18.9617 3.555 18.7051 3.555C18.2751 3.555 17.9151 3.7 17.6251 3.99C17.3351 4.27667 17.1901 4.725 17.1901 5.335C17.1901 5.94167 17.3351 6.39167 17.6251 6.685C17.9184 6.975 18.2784 7.12 18.7051 7.12C18.9717 7.12 19.2184 7.05667 19.4451 6.93C19.6717 6.8 19.8534 6.62333 19.9901 6.4C20.1267 6.17667 20.1951 5.92167 20.1951 5.635L20.8251 5.66C20.8251 6.12 20.7201 6.535 20.5101 6.905C20.3034 7.275 20.0234 7.56833 19.6701 7.785C19.3201 7.99833 18.9267 8.105 18.4901 8.105ZM20.1951 8V0.185H21.2851V8H20.1951ZM24.5168 8.105C24.1168 8.105 23.7651 8.04167 23.4618 7.915C23.1618 7.78833 22.9285 7.60667 22.7618 7.37C22.5951 7.13333 22.5118 6.84833 22.5118 6.515C22.5118 6.15833 22.6051 5.86333 22.7918 5.63C22.9818 5.39667 23.2418 5.21667 23.5718 5.09C23.9051 4.96 24.2835 4.875 24.7068 4.835C25.3368 4.77167 25.7801 4.71 26.0368 4.65C26.2968 4.59 26.4268 4.49167 26.4268 4.355C26.4268 4.35167 26.4268 4.34833 26.4268 4.345C26.4268 4.075 26.3118 3.87 26.0818 3.73C25.8518 3.59 25.5235 3.52 25.0968 3.52C24.6468 3.52 24.2985 3.6 24.0518 3.76C23.8085 3.91667 23.6868 4.16667 23.6868 4.51H22.6218C22.6218 4.10333 22.7268 3.75833 22.9368 3.475C23.1501 3.19167 23.4435 2.97667 23.8168 2.83C24.1901 2.68 24.6185 2.605 25.1018 2.605C25.5451 2.605 25.9485 2.67333 26.3118 2.81C26.6785 2.94333 26.9701 3.14333 27.1868 3.41C27.4035 3.67667 27.5118 4.00833 27.5118 4.405C27.5118 4.475 27.5118 4.545 27.5118 4.615C27.5118 4.68167 27.5118 4.75 27.5118 4.82V6.94C27.5118 7.06333 27.5168 7.18333 27.5268 7.3C27.5368 7.41333 27.5551 7.515 27.5818 7.605C27.6118 7.70833 27.6468 7.79333 27.6868 7.86C27.7301 7.92667 27.7651 7.97333 27.7918 8H26.7118C26.6918 7.98 26.6618 7.93833 26.6218 7.875C26.5851 7.80833 26.5518 7.73167 26.5218 7.645C26.4918 7.56167 26.4685 7.46667 26.4518 7.36C26.4385 7.25 26.4318 7.13167 26.4318 7.005L26.6318 7.145C26.5318 7.33833 26.3801 7.50667 26.1768 7.65C25.9768 7.79333 25.7351 7.905 25.4518 7.985C25.1718 8.065 24.8601 8.105 24.5168 8.105ZM24.7418 7.205C25.0518 7.205 25.3335 7.15667 25.5868 7.06C25.8435 6.96 26.0485 6.81 26.2018 6.61C26.3551 6.40667 26.4318 6.15167 26.4318 5.845V4.965L26.6868 5.3C26.4735 5.38333 26.2118 5.45167 25.9018 5.505C25.5951 5.555 25.2785 5.59667 24.9518 5.63C24.5018 5.67 24.1635 5.74833 23.9368 5.865C23.7101 5.97833 23.5968 6.16833 23.5968 6.435C23.5968 6.69167 23.6901 6.885 23.8768 7.015C24.0668 7.14167 24.3551 7.205 24.7418 7.205ZM30.9624 8.09C30.7858 8.09 30.6091 8.07167 30.4324 8.035C30.2591 7.99833 30.0991 7.93167 29.9524 7.835C29.8091 7.735 29.6941 7.59333 29.6074 7.41C29.5208 7.22667 29.4774 6.98667 29.4774 6.69C29.4774 6.62 29.4774 6.54667 29.4774 6.47C29.4774 6.39333 29.4774 6.315 29.4774 6.235V3.59H28.2024V2.69H28.8724C29.0158 2.69 29.1274 2.685 29.2074 2.675C29.2908 2.66167 29.3508 2.63333 29.3874 2.59C29.4274 2.54333 29.4524 2.47 29.4624 2.37C29.4724 2.27 29.4774 2.13333 29.4774 1.96V0.934999H30.5624V2.69H32.1874V3.59H30.5624V5.945C30.5624 6.01167 30.5624 6.07833 30.5624 6.145C30.5624 6.21167 30.5624 6.27333 30.5624 6.33C30.5624 6.59667 30.5941 6.80667 30.6574 6.96C30.7241 7.11333 30.8741 7.19 31.1074 7.19C31.2074 7.19 31.3024 7.18167 31.3924 7.165C31.4824 7.14833 31.5508 7.13 31.5974 7.11V7.995C31.5374 8.01833 31.4524 8.04 31.3424 8.06C31.2324 8.08 31.1058 8.09 30.9624 8.09ZM34.9074 8.105C34.5074 8.105 34.1558 8.04167 33.8524 7.915C33.5524 7.78833 33.3191 7.60667 33.1524 7.37C32.9858 7.13333 32.9024 6.84833 32.9024 6.515C32.9024 6.15833 32.9958 5.86333 33.1824 5.63C33.3724 5.39667 33.6324 5.21667 33.9624 5.09C34.2958 4.96 34.6741 4.875 35.0974 4.835C35.7274 4.77167 36.1708 4.71 36.4274 4.65C36.6874 4.59 36.8174 4.49167 36.8174 4.355C36.8174 4.35167 36.8174 4.34833 36.8174 4.345C36.8174 4.075 36.7024 3.87 36.4724 3.73C36.2424 3.59 35.9141 3.52 35.4874 3.52C35.0374 3.52 34.6891 3.6 34.4424 3.76C34.1991 3.91667 34.0774 4.16667 34.0774 4.51H33.0124C33.0124 4.10333 33.1174 3.75833 33.3274 3.475C33.5408 3.19167 33.8341 2.97667 34.2074 2.83C34.5808 2.68 35.0091 2.605 35.4924 2.605C35.9358 2.605 36.3391 2.67333 36.7024 2.81C37.0691 2.94333 37.3608 3.14333 37.5774 3.41C37.7941 3.67667 37.9024 4.00833 37.9024 4.405C37.9024 4.475 37.9024 4.545 37.9024 4.615C37.9024 4.68167 37.9024 4.75 37.9024 4.82V6.94C37.9024 7.06333 37.9074 7.18333 37.9174 7.3C37.9274 7.41333 37.9458 7.515 37.9724 7.605C38.0024 7.70833 38.0374 7.79333 38.0774 7.86C38.1208 7.92667 38.1558 7.97333 38.1824 8H37.1024C37.0824 7.98 37.0524 7.93833 37.0124 7.875C36.9758 7.80833 36.9424 7.73167 36.9124 7.645C36.8824 7.56167 36.8591 7.46667 36.8424 7.36C36.8291 7.25 36.8224 7.13167 36.8224 7.005L37.0224 7.145C36.9224 7.33833 36.7708 7.50667 36.5674 7.65C36.3674 7.79333 36.1258 7.905 35.8424 7.985C35.5624 8.065 35.2508 8.105 34.9074 8.105ZM35.1324 7.205C35.4424 7.205 35.7241 7.15667 35.9774 7.06C36.2341 6.96 36.4391 6.81 36.5924 6.61C36.7458 6.40667 36.8224 6.15167 36.8224 5.845V4.965L37.0774 5.3C36.8641 5.38333 36.6024 5.45167 36.2924 5.505C35.9858 5.555 35.6691 5.59667 35.3424 5.63C34.8924 5.67 34.5541 5.74833 34.3274 5.865C34.1008 5.97833 33.9874 6.16833 33.9874 6.435C33.9874 6.69167 34.0808 6.885 34.2674 7.015C34.4574 7.14167 34.7458 7.205 35.1324 7.205Z" fill="#515B6F"/>
</svg>
