<svg width="16" height="16" viewBox="0 0 16 16" fill="none" xmlns="http://www.w3.org/2000/svg">
<path fill-rule="evenodd" clip-rule="evenodd" d="M2.6665 7.99999C2.6665 7.63181 2.96498 7.33333 3.33317 7.33333H12.6665C13.0347 7.33333 13.3332 7.63181 13.3332 7.99999C13.3332 8.36818 13.0347 8.66666 12.6665 8.66666H3.33317C2.96498 8.66666 2.6665 8.36818 2.6665 7.99999Z" fill="#4640DE" stroke="#4640DE" stroke-width="0.5" stroke-linecap="round" stroke-linejoin="round"/>
<path fill-rule="evenodd" clip-rule="evenodd" d="M2.86177 7.52859C3.12212 7.26824 3.54423 7.26824 3.80458 7.52859L7.80457 11.5286C8.06492 11.7889 8.06492 12.2111 7.80457 12.4714C7.54423 12.7317 7.12212 12.7317 6.86177 12.4714L2.86177 8.4714C2.60142 8.21105 2.60142 7.78894 2.86177 7.52859Z" fill="#4640DE" stroke="#4640DE" stroke-width="0.5" stroke-linecap="round" stroke-linejoin="round"/>
<path fill-rule="evenodd" clip-rule="evenodd" d="M7.80457 3.52859C8.06492 3.78894 8.06492 4.21105 7.80457 4.4714L3.80458 8.4714C3.54423 8.73175 3.12212 8.73175 2.86177 8.4714C2.60142 8.21105 2.60142 7.78894 2.86177 7.52859L6.86177 3.52859C7.12212 3.26824 7.54423 3.26824 7.80457 3.52859Z" fill="#4640DE" stroke="#4640DE" stroke-width="0.5" stroke-linecap="round" stroke-linejoin="round"/>
</svg>
