<svg width="20" height="20" viewBox="0 0 20 20" fill="none" xmlns="http://www.w3.org/2000/svg">
<path fill-rule="evenodd" clip-rule="evenodd" d="M2.28283 1.71417C2.08514 1.77115 1.77181 2.09443 1.71462 2.30054C1.68286 2.41494 1.6681 4.12204 1.66797 7.70949C1.66776 12.3506 1.67544 12.9698 1.7351 13.1127C1.82054 13.3173 1.99068 13.4971 2.2013 13.6054C2.35503 13.6845 2.44668 13.6893 3.57142 13.6774C4.7758 13.6646 4.77688 13.6645 4.93691 13.5561C5.02499 13.4964 5.15044 13.3712 5.21566 13.2777C5.31979 13.1286 5.33429 13.0672 5.33429 12.7755C5.33429 12.4926 5.31815 12.4192 5.22581 12.2828C5.16615 12.1946 5.04096 12.0691 4.94767 12.0039C4.785 11.8901 4.75241 11.8847 4.15578 11.8712L3.53354 11.8571V7.69404V3.53094H7.69591H11.8583L11.8723 4.15328C11.8858 4.75002 11.8913 4.78261 12.005 4.94532C12.0702 5.03863 12.1957 5.16383 12.2839 5.22351C12.4202 5.31586 12.4936 5.332 12.7764 5.332C13.0682 5.332 13.1295 5.31751 13.2786 5.21335C13.372 5.14812 13.4973 5.02265 13.557 4.93455C13.6654 4.7745 13.6654 4.77341 13.6782 3.56883C13.6901 2.44388 13.6853 2.35222 13.6063 2.19846C13.4979 1.9878 13.3182 1.81764 13.1136 1.73218C12.9706 1.67242 12.3551 1.66522 7.68966 1.66869C4.47848 1.67108 2.37083 1.68883 2.28283 1.71417ZM7.83693 7.26925C7.63924 7.32623 7.32591 7.64951 7.26872 7.85561C7.20389 8.08897 7.20389 17.4609 7.26872 17.6943C7.32955 17.9135 7.62666 18.2081 7.85602 18.2766C8.11472 18.354 17.4371 18.354 17.6958 18.2766C17.9263 18.2078 18.2078 17.9263 18.2766 17.6957C18.354 17.4369 18.354 8.11293 18.2766 7.85418C18.2078 7.6236 17.9263 7.34212 17.6958 7.27324C17.4723 7.20645 8.06803 7.20267 7.83693 7.26925Z" fill="#4640DE"/>
</svg>
