<svg width="45" height="45" viewBox="0 0 45 45" fill="none" xmlns="http://www.w3.org/2000/svg">
<path d="M2.10938 23.2031H42.8906V42.8906H2.10938V23.2031Z" fill="#F2F8FF"/>
<path d="M22.5 40.0781C26.3833 40.0781 29.5312 36.9301 29.5312 33.0469C29.5312 29.1636 26.3833 26.0156 22.5 26.0156C18.6167 26.0156 15.4688 29.1636 15.4688 33.0469C15.4688 36.9301 18.6167 40.0781 22.5 40.0781Z" fill="#004FA8"/>
<path opacity="0.06" d="M22.5 26.0156C22.1407 26.0156 21.7905 26.0515 21.4453 26.1035C24.8266 26.6133 27.4219 29.5228 27.4219 33.0469C27.4219 36.5709 24.8266 39.4805 21.4453 39.9902C21.7905 40.0423 22.1407 40.0781 22.5 40.0781C26.3834 40.0781 29.5312 36.9302 29.5312 33.0469C29.5312 29.1635 26.3834 26.0156 22.5 26.0156Z" fill="#303030"/>
<path d="M42.8906 2.10938L28.125 16.875L16.1719 10.5469L4.21875 20.3906H42.8906V2.10938Z" fill="#57A5FF"/>
<path d="M2.10938 20.3906H42.8906V23.2031H2.10938V20.3906Z" fill="#C6CBD1"/>
<path d="M42.8893 1.40625H37.2643V2.8125H41.192L27.9936 16.0109L16.4989 9.92601C16.2479 9.79313 15.9413 9.82336 15.7227 10.0048L3.76953 19.8485L4.6632 20.9334L16.2542 11.3878L27.7932 17.4966C28.066 17.6407 28.4007 17.5908 28.6194 17.3721L42.1862 3.80672V7.73438H43.5924V2.10938C43.5924 1.72055 43.2781 1.40625 42.8893 1.40625Z" fill="#004FA8"/>
<path d="M4.21875 28.125V29.5312C6.54539 29.5312 8.4375 27.6391 8.4375 25.3125H7.03125C7.03125 26.8636 5.76984 28.125 4.21875 28.125Z" fill="#57A5FF"/>
<path d="M37.9688 25.3125H36.5625C36.5625 27.6391 38.4546 29.5312 40.7812 29.5312V28.125C39.2302 28.125 37.9688 26.8636 37.9688 25.3125Z" fill="#57A5FF"/>
<path d="M4.21875 36.5625V37.9688C5.76984 37.9688 7.03125 39.2302 7.03125 40.7812H8.4375C8.4375 38.4546 6.54539 36.5625 4.21875 36.5625Z" fill="#57A5FF"/>
<path d="M36.5625 40.7812H37.9688C37.9688 39.2302 39.2302 37.9688 40.7812 37.9688V36.5625C38.4546 36.5625 36.5625 38.4546 36.5625 40.7812Z" fill="#57A5FF"/>
<path d="M23.2031 28.864V27.4219H21.7969V28.864C20.6072 29.0362 19.6875 30.053 19.6875 31.2891C19.6875 32.6461 20.7914 33.75 22.1484 33.75H22.8516C23.433 33.75 23.9062 34.2232 23.9062 34.8047C23.9062 35.3862 23.433 35.8594 22.8516 35.8594H22.1484C21.567 35.8594 21.0938 35.3862 21.0938 34.8047V34.6289H19.6875V34.8047C19.6875 36.0408 20.6072 37.0575 21.7969 37.2298V38.6719H23.2031V37.2298C24.3928 37.0575 25.3125 36.0408 25.3125 34.8047C25.3125 33.4477 24.2086 32.3438 22.8516 32.3438H22.1484C21.567 32.3438 21.0938 31.8705 21.0938 31.2891C21.0938 30.7076 21.567 30.2344 22.1484 30.2344H22.8516C23.433 30.2344 23.9062 30.7076 23.9062 31.2891V31.4648H25.3125V31.2891C25.3125 30.053 24.3928 29.0362 23.2031 28.864Z" fill="#F2F8FF"/>
<path opacity="0.06" d="M42.8906 42.8906H2.10938V23.2031C11.127 34.0242 24.0089 40.9029 38.0173 42.3773L42.8906 42.8906Z" fill="#303030"/>
</svg>
