<svg width="17" height="17" viewBox="0 0 17 17" fill="none" xmlns="http://www.w3.org/2000/svg">
<path fill-rule="evenodd" clip-rule="evenodd" d="M8.4987 3.16536C5.55318 3.16536 3.16536 5.55318 3.16536 8.4987C3.16536 11.4442 5.55318 13.832 8.4987 13.832C11.4442 13.832 13.832 11.4442 13.832 8.4987C13.832 5.55318 11.4442 3.16536 8.4987 3.16536ZM1.83203 8.4987C1.83203 4.8168 4.8168 1.83203 8.4987 1.83203C12.1806 1.83203 15.1654 4.8168 15.1654 8.4987C15.1654 12.1806 12.1806 15.1654 8.4987 15.1654C4.8168 15.1654 1.83203 12.1806 1.83203 8.4987Z" fill="white"/>
<path fill-rule="evenodd" clip-rule="evenodd" d="M10.9701 6.69526C11.2305 6.95561 11.2305 7.37772 10.9701 7.63807L8.30344 10.3047C8.04309 10.5651 7.62098 10.5651 7.36063 10.3047L6.02729 8.9714C5.76694 8.71106 5.76694 8.28895 6.02729 8.0286C6.28764 7.76825 6.70975 7.76825 6.9701 8.0286L7.83203 8.89052L10.0273 6.69526C10.2876 6.43491 10.7098 6.43491 10.9701 6.69526Z" fill="white"/>
</svg>
