<svg width="40" height="40" viewBox="0 0 40 40" fill="none" xmlns="http://www.w3.org/2000/svg">
<path d="M35 13.125H5C4.655 13.125 4.375 13.405 4.375 13.75V33.125H6.875H31.875H35.625V13.75C35.625 13.405 35.345 13.125 35 13.125Z" fill="#004FA8"/>
<path d="M35.625 33.125H33.125H6.875H4.375H1.875C1.875 35.8863 4.11375 38.125 6.875 38.125H33.125C35.8862 38.125 38.125 35.8863 38.125 33.125H35.625Z" fill="#004FA8"/>
<path d="M6.875 15.625H33.125V33.125H6.875V15.625Z" fill="#6EB1FF"/>
<path opacity="0.12" d="M33.125 36.25H6.875C4.77688 36.25 2.98375 34.9569 2.24187 33.125H1.875C1.875 35.8863 4.11375 38.125 6.875 38.125H33.125C35.8862 38.125 38.125 35.8863 38.125 33.125H37.7581C37.0163 34.9569 35.2231 36.25 33.125 36.25Z" fill="#303030"/>
<path d="M21.8734 25.6266V24.7109C21.5928 24.8978 21.3003 25.0691 20.9834 25.2047C20.3547 25.4741 19.6428 25.4741 19.0141 25.2047C18.6972 25.0691 18.4041 24.8978 18.1241 24.7109V25.6266C18.1241 26.3359 17.8259 26.9728 17.3516 27.4278L19.9984 28.7516L22.7972 27.5522C22.2378 27.0934 21.8734 26.4059 21.8734 25.6266Z" fill="#EBE7DF"/>
<path d="M21.25 16.9056V16.875L21.3844 17.5475C21.6712 18.9813 22.9131 20.025 24.375 20.0612V18.125C24.375 17.1631 24.01 16.2888 23.4144 15.625C22.7275 14.8594 21.7344 14.375 20.625 14.375H19.375C17.3038 14.375 15.625 16.0538 15.625 18.125V20.0619L18.1562 20.0344C19.87 20.015 21.25 18.62 21.25 16.9056Z" fill="#4F4021"/>
<path d="M20.985 25.2031C21.3019 25.0675 21.595 24.8963 21.875 24.7094C23.4137 23.685 24.375 21.9544 24.375 20.0619C22.9131 20.0256 21.6712 18.9819 21.3844 17.5481L21.25 16.875V16.9056C21.25 18.62 19.87 20.015 18.1562 20.0338L15.625 20.0619C15.625 21.9544 16.5863 23.685 18.125 24.7094C18.4056 24.8963 18.6981 25.0675 19.015 25.2031C19.6444 25.4725 20.3556 25.4725 20.985 25.2031Z" fill="#FFFBF2"/>
<path d="M35.625 1.875H10.625C9.24437 1.875 8.125 2.99437 8.125 4.375V6.875C8.125 8.25563 9.24437 9.375 10.625 9.375H14.375L16.25 11.25V9.375H35.625C37.0056 9.375 38.125 8.25563 38.125 6.875V4.375C38.125 2.99437 37.0056 1.875 35.625 1.875Z" fill="#57A5FF"/>
<path d="M24.375 28.1245C23.7738 28.1245 23.23 27.9039 22.7987 27.5502L20 28.7495L17.3525 27.4258C16.9031 27.8564 16.2963 28.1245 15.625 28.1245C14.2444 28.1245 13.125 29.2439 13.125 30.6245V33.1245H26.875V30.6245C26.875 29.2439 25.7556 28.1245 24.375 28.1245Z" fill="#49BA21"/>
<path opacity="0.12" d="M9.99984 8.75078C9.46922 8.75078 8.97922 8.58328 8.57422 8.30078C9.02609 8.94953 9.77484 9.37578 10.6248 9.37578H14.3748L13.7498 8.75078H9.99984Z" fill="#303030"/>
<path opacity="0.12" d="M37.0506 2.32422C37.3325 2.72922 37.5 3.21922 37.5 3.74984V6.24984C37.5 7.63047 36.3806 8.74985 35 8.74985H15.625V10.6248L16.25 11.2498V9.37485H35.625C37.0056 9.37485 38.125 8.25547 38.125 6.87484V4.37484C38.125 3.52484 37.6987 2.77609 37.0506 2.32422Z" fill="#303030"/>
<path opacity="0.12" d="M4.375 31.25H35.625V33.125H4.375V31.25Z" fill="#303030"/>
<path d="M28.75 36.25H11.25C10.905 36.25 10.625 35.97 10.625 35.625C10.625 35.28 10.905 35 11.25 35H28.75C29.095 35 29.375 35.28 29.375 35.625C29.375 35.97 29.095 36.25 28.75 36.25Z" fill="#F2F8FF"/>
<path d="M17.5 5H12.5C12.155 5 11.875 4.72 11.875 4.375C11.875 4.03 12.155 3.75 12.5 3.75H17.5C17.845 3.75 18.125 4.03 18.125 4.375C18.125 4.72 17.845 5 17.5 5Z" fill="#F2F8FF"/>
<path d="M33.125 5H20.625C20.28 5 20 4.72 20 4.375C20 4.03 20.28 3.75 20.625 3.75H33.125C33.47 3.75 33.75 4.03 33.75 4.375C33.75 4.72 33.47 5 33.125 5Z" fill="#F2F8FF"/>
<path d="M12.5 7.5C12.155 7.5 11.875 7.22 11.875 6.875C11.875 6.53 12.155 6.25 12.5 6.25C12.845 6.25 13.125 6.53 13.125 6.875C13.125 7.22 12.845 7.5 12.5 7.5Z" fill="#F2F8FF"/>
<path d="M28.125 7.5H15C14.655 7.5 14.375 7.22 14.375 6.875C14.375 6.53 14.655 6.25 15 6.25H28.125C28.47 6.25 28.75 6.53 28.75 6.875C28.75 7.22 28.47 7.5 28.125 7.5Z" fill="#F2F8FF"/>
<path d="M33.125 7.5H30.625C30.28 7.5 30 7.22 30 6.875C30 6.53 30.28 6.25 30.625 6.25H33.125C33.47 6.25 33.75 6.53 33.75 6.875C33.75 7.22 33.47 7.5 33.125 7.5Z" fill="#F2F8FF"/>
</svg>
