<svg width="13" height="13" viewBox="0 0 13 13" fill="none" xmlns="http://www.w3.org/2000/svg">
<path d="M12.3024 4.67188L8.58318 4.13135L6.92058 0.760748C6.87517 0.668462 6.80047 0.593755 6.70818 0.548345C6.47674 0.434087 6.19548 0.529302 6.07976 0.760748L4.41716 4.13135L0.697926 4.67188C0.595387 4.68653 0.501637 4.73487 0.42986 4.80811C0.343085 4.8973 0.295268 5.01729 0.296916 5.14172C0.298564 5.26614 0.349542 5.38483 0.438649 5.47169L3.12957 8.09522L2.49382 11.7998C2.47892 11.886 2.48845 11.9746 2.52135 12.0557C2.55425 12.1367 2.6092 12.2069 2.67996 12.2583C2.75072 12.3097 2.83447 12.3402 2.92171 12.3464C3.00894 12.3526 3.09617 12.3343 3.17351 12.2935L6.50017 10.5444L9.82683 12.2935C9.91765 12.3418 10.0231 12.3579 10.1242 12.3403C10.3791 12.2964 10.5505 12.0547 10.5065 11.7998L9.87078 8.09522L12.5617 5.47169C12.6349 5.39991 12.6833 5.30616 12.6979 5.20362C12.7375 4.94727 12.5588 4.70997 12.3024 4.67188Z" fill="#EDA114"/>
</svg>
