<svg width="19" height="18" viewBox="0 0 19 18" fill="none" xmlns="http://www.w3.org/2000/svg">
<path fill-rule="evenodd" clip-rule="evenodd" d="M4.6932 3.8646C4.86197 3.69588 5.09085 3.6011 5.3295 3.6011C5.56814 3.6011 5.79702 3.69588 5.9658 3.8646L9.82949 7.7283L13.6932 3.8646C13.7762 3.77864 13.8755 3.71008 13.9853 3.66291C14.0951 3.61574 14.2132 3.59092 14.3327 3.58988C14.4522 3.58884 14.5707 3.61161 14.6814 3.65686C14.792 3.70212 14.8924 3.76894 14.977 3.85345C15.0615 3.93795 15.1283 4.03844 15.1735 4.14904C15.2188 4.25965 15.2416 4.37816 15.2405 4.49766C15.2395 4.61717 15.2147 4.73526 15.1675 4.84507C15.1203 4.95487 15.0518 5.05418 14.9658 5.1372L11.1021 9.0009L14.9658 12.8646C15.1297 13.0343 15.2205 13.2617 15.2184 13.4977C15.2164 13.7336 15.1217 13.9594 14.9548 14.1262C14.788 14.2931 14.5622 14.3878 14.3263 14.3898C14.0903 14.3919 13.8629 14.3011 13.6932 14.1372L9.82949 10.2735L5.9658 14.1372C5.79605 14.3011 5.56871 14.3919 5.33273 14.3898C5.09676 14.3878 4.87103 14.2931 4.70416 14.1262C4.53729 13.9594 4.44264 13.7336 4.44059 13.4977C4.43854 13.2617 4.52925 13.0343 4.6932 12.8646L8.5569 9.0009L4.6932 5.1372C4.52447 4.96843 4.42969 4.73955 4.42969 4.5009C4.42969 4.26226 4.52447 4.03338 4.6932 3.8646Z" fill="#EB5757" stroke="#EB5757"/>
</svg>
