<svg width="20" height="20" viewBox="0 0 20 20" fill="none" xmlns="http://www.w3.org/2000/svg">
<path d="M18.267 9.66536C16.5836 5.75703 13.417 3.33203 10.0003 3.33203C6.58363 3.33203 3.41697 5.75703 1.73363 9.66536C1.68775 9.7705 1.66406 9.88398 1.66406 9.9987C1.66406 10.1134 1.68775 10.2269 1.73363 10.332C3.41697 14.2404 6.58363 16.6654 10.0003 16.6654C13.417 16.6654 16.5836 14.2404 18.267 10.332C18.3129 10.2269 18.3365 10.1134 18.3365 9.9987C18.3365 9.88398 18.3129 9.7705 18.267 9.66536V9.66536ZM10.0003 14.9987C7.3503 14.9987 4.85863 13.0904 3.41697 9.9987C4.85863 6.90703 7.3503 4.9987 10.0003 4.9987C12.6503 4.9987 15.142 6.90703 16.5836 9.9987C15.142 13.0904 12.6503 14.9987 10.0003 14.9987ZM10.0003 6.66536C9.34103 6.66536 8.69656 6.86086 8.1484 7.22713C7.60024 7.5934 7.17299 8.114 6.9207 8.72309C6.66841 9.33217 6.6024 10.0024 6.73102 10.649C6.85963 11.2956 7.1771 11.8895 7.64328 12.3557C8.10945 12.8219 8.7034 13.1394 9.35 13.268C9.9966 13.3966 10.6668 13.3306 11.2759 13.0783C11.885 12.826 12.4056 12.3988 12.7719 11.8506C13.1381 11.3024 13.3336 10.658 13.3336 9.9987C13.3336 9.11464 12.9824 8.2668 12.3573 7.64167C11.7322 7.01655 10.8844 6.66536 10.0003 6.66536V6.66536ZM10.0003 11.6654C9.67066 11.6654 9.34843 11.5676 9.07435 11.3845C8.80027 11.2013 8.58665 10.941 8.4605 10.6365C8.33435 10.332 8.30135 9.99685 8.36566 9.67355C8.42997 9.35025 8.5887 9.05327 8.82179 8.82019C9.05488 8.5871 9.35185 8.42836 9.67515 8.36406C9.99845 8.29975 10.3336 8.33275 10.6381 8.4589C10.9426 8.58504 11.2029 8.79867 11.3861 9.07275C11.5692 9.34683 11.667 9.66906 11.667 9.9987C11.667 10.4407 11.4914 10.8646 11.1788 11.1772C10.8662 11.4898 10.4423 11.6654 10.0003 11.6654Z" fill="#4640DE"/>
</svg>
