<svg width="14" height="13" viewBox="0 0 14 13" fill="none" xmlns="http://www.w3.org/2000/svg">
    <path fill-rule="evenodd" clip-rule="evenodd" d="M5.1054 4.50138C5.17104 4.43577 5.26005 4.39891 5.35285 4.39891C5.44566 4.39891 5.53467 4.43577 5.6003 4.50138L7.10285 6.00393L8.6054 4.50138C8.63769 4.46795 8.67631 4.44129 8.71901 4.42295C8.76171 4.4046 8.80764 4.39495 8.85411 4.39454C8.90059 4.39414 8.94667 4.403 8.98969 4.42059C9.0327 4.43819 9.07178 4.46418 9.10464 4.49704C9.1375 4.52991 9.16349 4.56898 9.18109 4.612C9.19869 4.65501 9.20755 4.7011 9.20714 4.74757C9.20674 4.79405 9.19708 4.83997 9.17874 4.88267C9.1604 4.92538 9.13373 4.964 9.1003 4.99628L7.59775 6.49883L9.1003 8.00138C9.16406 8.06739 9.19934 8.1558 9.19854 8.24757C9.19774 8.33934 9.16093 8.42713 9.09604 8.49202C9.03115 8.55691 8.94336 8.59372 8.85159 8.59452C8.75983 8.59532 8.67142 8.56004 8.6054 8.49628L7.10285 6.99373L5.6003 8.49628C5.53429 8.56004 5.44588 8.59532 5.35411 8.59452C5.26235 8.59372 5.17456 8.55691 5.10967 8.49202C5.04478 8.42713 5.00797 8.33934 5.00717 8.24757C5.00637 8.1558 5.04165 8.06739 5.1054 8.00138L6.60795 6.49883L5.1054 4.99628C5.03979 4.93065 5.00293 4.84164 5.00293 4.74883C5.00293 4.65602 5.03979 4.56702 5.1054 4.50138V4.50138Z" fill="white" stroke="white" stroke-width="0.7"/>
    <rect x="1.20254" y="0.6" width="11.8" height="11.8" rx="5.9" stroke="white" stroke-width="1.2"/>
</svg>
