<svg width="16" height="16" viewBox="0 0 16 16" fill="none" xmlns="http://www.w3.org/2000/svg">
  <path d="M14.6134 7.73464C13.2667 4.60797 10.7334 2.66797 8.00004 2.66797C5.26671 2.66797 2.73338 4.60797 1.38671 7.73464C1.35 7.81875 1.33105 7.90953 1.33105 8.0013C1.33105 8.09307 1.35 8.18386 1.38671 8.26797C2.73338 11.3946 5.26671 13.3346 8.00004 13.3346C10.7334 13.3346 13.2667 11.3946 14.6134 8.26797C14.6501 8.18386 14.669 8.09307 14.669 8.0013C14.669 7.90953 14.6501 7.81875 14.6134 7.73464ZM8.00004 12.0013C5.88004 12.0013 3.88671 10.4746 2.73338 8.0013C3.88671 5.52797 5.88004 4.0013 8.00004 4.0013C10.12 4.0013 12.1134 5.52797 13.2667 8.0013C12.1134 10.4746 10.12 12.0013 8.00004 12.0013ZM8.00004 5.33464C7.47263 5.33464 6.95706 5.49103 6.51852 5.78405C6.07999 6.07707 5.7382 6.49354 5.53637 6.98081C5.33453 7.46808 5.28172 8.00426 5.38462 8.52154C5.48751 9.03883 5.74149 9.51398 6.11443 9.88692C6.48737 10.2599 6.96252 10.5138 7.4798 10.6167C7.99709 10.7196 8.53326 10.6668 9.02053 10.465C9.5078 10.2631 9.92428 9.92135 10.2173 9.48282C10.5103 9.04429 10.6667 8.52872 10.6667 8.0013C10.6667 7.29406 10.3858 6.61578 9.88566 6.11568C9.38557 5.61559 8.70729 5.33464 8.00004 5.33464ZM8.00004 9.33463C7.73634 9.33463 7.47855 9.25644 7.25928 9.10993C7.04002 8.96342 6.86912 8.75518 6.76821 8.51155C6.66729 8.26791 6.64088 7.99982 6.69233 7.74118C6.74378 7.48254 6.87077 7.24496 7.05724 7.05849C7.24371 6.87202 7.48128 6.74504 7.73992 6.69359C7.99857 6.64214 8.26665 6.66855 8.51029 6.76946C8.75392 6.87038 8.96216 7.04128 9.10867 7.26054C9.25518 7.47981 9.33338 7.73759 9.33338 8.0013C9.33338 8.35492 9.1929 8.69406 8.94285 8.94411C8.6928 9.19416 8.35367 9.33463 8.00004 9.33463Z" fill="#4640DE"/>
</svg>
