<svg width="16" height="16" viewBox="0 0 16 16" fill="none" xmlns="http://www.w3.org/2000/svg">
<path d="M13.9251 6.74269L14.0048 6.80402L14.0101 6.79541C14.1647 6.54624 14.1131 6.21724 13.9078 6.0242L13.9079 6.02408L13.9034 6.02033C13.661 5.8177 13.3386 5.88171 13.1584 6.12933C13.1568 6.13116 13.1551 6.13329 13.1531 6.13569C13.0631 6.24526 12.4897 6.94306 11.6122 7.64155C10.6662 8.3946 9.38461 9.13299 8.00206 9.13299C6.66292 9.13299 5.37617 8.38938 4.41305 7.62974C3.5104 6.9178 2.90799 6.2051 2.82665 6.10886C2.82474 6.1066 2.82312 6.10468 2.82179 6.10311L2.82182 6.10309C2.63643 5.87547 2.29057 5.84451 2.07489 6.04725L2.07488 6.04726C1.86652 6.24315 1.83972 6.59892 2.0194 6.82455C2.03774 6.85198 2.08124 6.90676 2.14229 6.97859C2.21052 7.05886 2.30554 7.16604 2.42466 7.29258C2.64761 7.52941 2.95564 7.83474 3.33117 8.15874L2.30553 9.30395C2.10003 9.52558 2.12146 9.87715 2.31924 10.077C2.38896 10.2045 2.53476 10.2553 2.65842 10.2553C2.79551 10.2553 2.92874 10.1961 3.03206 10.0851L3.03207 10.0851L3.03326 10.0838L4.15297 8.83697C4.6796 9.22038 5.2969 9.58131 5.97166 9.84706L5.54499 11.397L5.54497 11.397L5.54447 11.3989C5.46879 11.6971 5.61885 12.0095 5.91373 12.096L5.9275 12.1H5.94185H6.07061C6.31227 12.1 6.52236 11.9277 6.57559 11.6777L7.00085 10.1328C7.32222 10.193 7.66155 10.2323 8.00203 10.2323C8.34264 10.2323 8.68209 10.193 9.00357 10.1327L9.42853 11.6548C9.48268 11.9077 9.71626 12.0769 9.93348 12.0769L9.93628 12.0769C9.95573 12.0769 9.98386 12.077 10.0103 12.0729C10.031 12.0697 10.061 12.0627 10.089 12.0435C10.3705 11.9491 10.5121 11.6442 10.4382 11.3528L10.4382 11.3528L10.4376 11.3505L10.0113 9.82387C10.6859 9.55811 11.3031 9.19725 11.8296 8.81392L12.9279 10.0376L12.9279 10.0377L12.9291 10.039C13.0324 10.15 13.1657 10.2092 13.3028 10.2092C13.4399 10.2092 13.5731 10.15 13.6764 10.039L13.6047 9.9723L13.6764 10.039C13.8833 9.81671 13.8828 9.48392 13.7022 9.26208L13.7023 9.26201L13.6992 9.25851L12.6754 8.11539C13.0809 7.78895 13.4043 7.47223 13.6304 7.23204C13.7512 7.10378 13.8442 6.99722 13.9073 6.92248C13.9389 6.88511 13.9629 6.85568 13.9792 6.83547L13.9977 6.81221L14.0025 6.80606L14.0038 6.8044L14.0042 6.80393L14.0043 6.80379L14.0043 6.80374L13.9251 6.74269Z" fill="#84818A" stroke="#84818A" stroke-width="0.2"/>
</svg>
