<svg width="33" height="32" viewBox="0 0 33 32" fill="none" xmlns="http://www.w3.org/2000/svg">
<path d="M20.5 10.667H20.5133" stroke="#4640DE" stroke-width="2" stroke-linecap="round" stroke-linejoin="round"/>
<path d="M23.1654 5.33301H9.83203C7.62289 5.33301 5.83203 7.12387 5.83203 9.33301V22.6663C5.83203 24.8755 7.62289 26.6663 9.83203 26.6663H23.1654C25.3745 26.6663 27.1654 24.8755 27.1654 22.6663V9.33301C27.1654 7.12387 25.3745 5.33301 23.1654 5.33301Z" stroke="#4640DE" stroke-width="2" stroke-linecap="round" stroke-linejoin="round"/>
<path d="M5.83203 19.9999L11.1654 14.6666C11.7734 14.0815 12.4632 13.7734 13.1654 13.7734C13.8675 13.7734 14.5573 14.0815 15.1654 14.6666L21.832 21.3333" stroke="#4640DE" stroke-width="2" stroke-linecap="round" stroke-linejoin="round"/>
<path d="M19.168 18.6669L20.5013 17.3336C21.1094 16.7485 21.7992 16.4404 22.5013 16.4404C23.2034 16.4404 23.8932 16.7485 24.5013 17.3336L27.168 20.0003" stroke="#4640DE" stroke-width="2" stroke-linecap="round" stroke-linejoin="round"/>
</svg>
