<svg width="18" height="19" viewBox="0 0 18 19" fill="none" xmlns="http://www.w3.org/2000/svg">
    <path fill-rule="evenodd" clip-rule="evenodd" d="M2.90901 5.65901C3.33097 5.23705 3.90326 5 4.5 5H6.75C7.16421 5 7.5 5.33579 7.5 5.75C7.5 6.16421 7.16421 6.5 6.75 6.5H4.5C4.30109 6.5 4.11032 6.57902 3.96967 6.71967C3.82902 6.86032 3.75 7.05109 3.75 7.25V14C3.75 14.1989 3.82902 14.3897 3.96967 14.5303C4.11032 14.671 4.30109 14.75 4.5 14.75H11.25C11.4489 14.75 11.6397 14.671 11.7803 14.5303C11.921 14.3897 12 14.1989 12 14V11.75C12 11.3358 12.3358 11 12.75 11C13.1642 11 13.5 11.3358 13.5 11.75V14C13.5 14.5967 13.2629 15.169 12.841 15.591C12.419 16.0129 11.8467 16.25 11.25 16.25H4.5C3.90326 16.25 3.33097 16.0129 2.90901 15.591C2.48705 15.169 2.25 14.5967 2.25 14V7.25C2.25 6.65326 2.48705 6.08097 2.90901 5.65901Z" fill="#F2F2F2"/>
    <path fill-rule="evenodd" clip-rule="evenodd" d="M12.5947 2.59467C13.0337 2.15565 13.6291 1.90901 14.25 1.90901C14.8709 1.90901 15.4663 2.15565 15.9053 2.59467C16.3443 3.03369 16.591 3.62913 16.591 4.25C16.591 4.87087 16.3443 5.46631 15.9053 5.90533L9.53033 12.2803C9.38968 12.421 9.19891 12.5 9 12.5H6.75C6.33579 12.5 6 12.1642 6 11.75V9.5C6 9.30109 6.07902 9.11032 6.21967 8.96967L12.5947 2.59467ZM14.25 3.40901C14.027 3.40901 13.813 3.49762 13.6553 3.65533L7.5 9.81066V11H8.68934L14.8447 4.84467C15.0024 4.68696 15.091 4.47305 15.091 4.25C15.091 4.02696 15.0024 3.81305 14.8447 3.65533C14.687 3.49762 14.473 3.40901 14.25 3.40901Z" fill="#F2F2F2"/>
    <path fill-rule="evenodd" clip-rule="evenodd" d="M11.4697 3.71967C11.7626 3.42678 12.2374 3.42678 12.5303 3.71967L14.7803 5.96967C15.0732 6.26256 15.0732 6.73744 14.7803 7.03033C14.4874 7.32322 14.0126 7.32322 13.7197 7.03033L11.4697 4.78033C11.1768 4.48744 11.1768 4.01256 11.4697 3.71967Z" fill="#F2F2F2"/>
</svg>
