<svg width="31" height="31" viewBox="0 0 31 31" fill="none" xmlns="http://www.w3.org/2000/svg">
    <path fill-rule="evenodd" clip-rule="evenodd" d="M5.16675 15.5C5.16675 14.7866 5.74505 14.2083 6.45841 14.2083H24.5417C25.2551 14.2083 25.8334 14.7866 25.8334 15.5C25.8334 16.2134 25.2551 16.7917 24.5417 16.7917H6.45841C5.74505 16.7917 5.16675 16.2134 5.16675 15.5Z" fill="white"/>
    <path fill-rule="evenodd" clip-rule="evenodd" d="M5.54507 14.5867C6.0495 14.0822 6.86733 14.0822 7.37176 14.5867L15.1218 22.3367C15.6262 22.8411 15.6262 23.6589 15.1218 24.1633C14.6173 24.6678 13.7995 24.6678 13.2951 24.1633L5.54507 16.4133C5.04064 15.9089 5.04064 15.0911 5.54507 14.5867Z" fill="white"/>
    <path fill-rule="evenodd" clip-rule="evenodd" d="M15.1218 6.83665C15.6262 7.34108 15.6262 8.15892 15.1218 8.66335L7.37176 16.4133C6.86733 16.9178 6.0495 16.9178 5.54507 16.4133C5.04064 15.9089 5.04064 15.0911 5.54507 14.5867L13.2951 6.83665C13.7995 6.33223 14.6173 6.33223 15.1218 6.83665Z" fill="white"/>
</svg>
