<svg width="27" height="14" viewBox="0 0 27 14" fill="none" xmlns="http://www.w3.org/2000/svg">
  <rect y="0.75" width="27" height="13" rx="4" fill="#EDA114"/>
  <path d="M8.7 3.85H10.184V9.75H9.36V4.458L9.384 4.466L7.996 9.75H6.804L5.404 4.462L5.428 4.45V9.75H4.6V3.85H6.084L7.408 9.19H7.368L8.7 3.85ZM12.8291 9.834C12.5091 9.834 12.2277 9.78333 11.9851 9.682C11.7451 9.58067 11.5584 9.43533 11.4251 9.246C11.2917 9.05667 11.2251 8.82867 11.2251 8.562C11.2251 8.27667 11.2997 8.04067 11.4491 7.854C11.6011 7.66733 11.8091 7.52333 12.0731 7.422C12.3397 7.318 12.6424 7.25 12.9811 7.218C13.4851 7.16733 13.8397 7.118 14.0451 7.07C14.2531 7.022 14.3571 6.94333 14.3571 6.834C14.3571 6.83133 14.3571 6.82867 14.3571 6.826C14.3571 6.61 14.2651 6.446 14.0811 6.334C13.8971 6.222 13.6344 6.166 13.2931 6.166C12.9331 6.166 12.6544 6.23 12.4571 6.358C12.2624 6.48333 12.1651 6.68333 12.1651 6.958H11.3131C11.3131 6.63267 11.3971 6.35667 11.5651 6.13C11.7357 5.90333 11.9704 5.73133 12.2691 5.614C12.5677 5.494 12.9104 5.434 13.2971 5.434C13.6517 5.434 13.9744 5.48867 14.2651 5.598C14.5584 5.70467 14.7917 5.86467 14.9651 6.078C15.1384 6.29133 15.2251 6.55667 15.2251 6.874C15.2251 6.93 15.2251 6.986 15.2251 7.042C15.2251 7.09533 15.2251 7.15 15.2251 7.206V8.902C15.2251 9.00067 15.2291 9.09667 15.2371 9.19C15.2451 9.28067 15.2597 9.362 15.2811 9.434C15.3051 9.51667 15.3331 9.58467 15.3651 9.638C15.3997 9.69133 15.4277 9.72867 15.4491 9.75H14.5851C14.5691 9.734 14.5451 9.70067 14.5131 9.65C14.4837 9.59667 14.4571 9.53533 14.4331 9.466C14.4091 9.39933 14.3904 9.32333 14.3771 9.238C14.3664 9.15 14.3611 9.05533 14.3611 8.954L14.5211 9.066C14.4411 9.22067 14.3197 9.35533 14.1571 9.47C13.9971 9.58467 13.8037 9.674 13.5771 9.738C13.3531 9.802 13.1037 9.834 12.8291 9.834ZM13.0091 9.114C13.2571 9.114 13.4824 9.07533 13.6851 8.998C13.8904 8.918 14.0544 8.798 14.1771 8.638C14.2997 8.47533 14.3611 8.27133 14.3611 8.026V7.322L14.5651 7.59C14.3944 7.65667 14.1851 7.71133 13.9371 7.754C13.6917 7.794 13.4384 7.82733 13.1771 7.854C12.8171 7.886 12.5464 7.94867 12.3651 8.042C12.1837 8.13267 12.0931 8.28467 12.0931 8.498C12.0931 8.70333 12.1677 8.858 12.3171 8.962C12.4691 9.06333 12.6997 9.114 13.0091 9.114ZM16.2909 9.75V5.502H17.1469V9.75H16.2909ZM16.7229 4.622C16.5736 4.622 16.4443 4.582 16.3349 4.502C16.2283 4.41933 16.1749 4.306 16.1749 4.162C16.1749 4.02067 16.2283 3.91 16.3349 3.83C16.4443 3.74733 16.5736 3.706 16.7229 3.706C16.8696 3.706 16.9963 3.74733 17.1029 3.83C17.2123 3.91 17.2669 4.02067 17.2669 4.162C17.2669 4.306 17.2123 4.41933 17.1029 4.502C16.9963 4.582 16.8696 4.622 16.7229 4.622ZM21.3264 9.75V7.79C21.3264 7.67533 21.3264 7.578 21.3264 7.498C21.3264 7.418 21.3264 7.34333 21.3264 7.274C21.3264 7.066 21.2944 6.88333 21.2304 6.726C21.1664 6.566 21.061 6.442 20.9144 6.354C20.7677 6.26333 20.5717 6.218 20.3264 6.218C20.1104 6.218 19.9144 6.27133 19.7384 6.378C19.565 6.48467 19.4264 6.63 19.3224 6.814C19.221 6.99533 19.1704 7.202 19.1704 7.434L18.7984 7.25C18.7984 6.906 18.8797 6.598 19.0424 6.326C19.205 6.05133 19.4224 5.834 19.6944 5.674C19.969 5.514 20.269 5.434 20.5944 5.434C20.9304 5.434 21.217 5.49933 21.4544 5.63C21.6944 5.758 21.877 5.942 22.0024 6.182C22.1304 6.41933 22.1944 6.70333 22.1944 7.034C22.1944 7.15667 22.1944 7.29267 22.1944 7.442C22.1944 7.59133 22.1944 7.73533 22.1944 7.874V9.75H21.3264ZM18.3024 9.75V5.502H19.1704V9.75H18.3024Z" fill="#F8F8FD"/>
</svg>
