<svg width="18" height="18" viewBox="0 0 18 18" fill="none" xmlns="http://www.w3.org/2000/svg">
<g opacity="0.5">
<path d="M9.75 12V12.75C9.75 13.3467 9.51295 13.919 9.09099 14.341C8.66903 14.7629 8.09674 15 7.5 15H4.5C3.90326 15 3.33097 14.7629 2.90901 14.341C2.48705 13.919 2.25 13.3467 2.25 12.75V5.25C2.25 4.65326 2.48705 4.08097 2.90901 3.65901C3.33097 3.23705 3.90326 3 4.5 3H7.5C8.09674 3 8.66903 3.23705 9.09099 3.65901C9.51295 4.08097 9.75 4.65326 9.75 5.25V6M12.75 12L15.75 9L12.75 12ZM15.75 9L12.75 6L15.75 9ZM15.75 9H5.25H15.75Z" stroke="#4640DE" stroke-width="1.5" stroke-linecap="round" stroke-linejoin="round"/>
</g>
</svg>
