<svg width="15" height="14" viewBox="0 0 15 14" fill="none" xmlns="http://www.w3.org/2000/svg">
    <path d="M13.3327 4.22464C13.3331 4.14787 13.3184 4.07177 13.2894 4.0007C13.2604 3.92963 13.2176 3.86499 13.1635 3.81048L10.6902 1.33715C10.6357 1.28308 10.571 1.24031 10.5 1.21128C10.4289 1.18225 10.3528 1.16753 10.276 1.16798C10.1993 1.16753 10.1232 1.18225 10.0521 1.21128C9.98101 1.24031 9.91637 1.28308 9.86186 1.33715L8.21103 2.98798L1.83519 9.36381C1.78113 9.41832 1.73835 9.48296 1.70933 9.55403C1.6803 9.6251 1.66558 9.70121 1.66603 9.77798V12.2513C1.66603 12.406 1.72748 12.5544 1.83688 12.6638C1.94628 12.7732 2.09465 12.8346 2.24936 12.8346H4.72269C4.80432 12.8391 4.88596 12.8263 4.96234 12.7972C5.03871 12.768 5.10811 12.7232 5.16603 12.6655L11.5069 6.28965L13.1635 4.66798C13.2168 4.61144 13.2602 4.54637 13.2919 4.47548C13.2975 4.42898 13.2975 4.38198 13.2919 4.33548C13.2946 4.30832 13.2946 4.28097 13.2919 4.25381L13.3327 4.22464ZM4.48353 11.668H2.83269V10.0171L8.62519 4.22464L10.276 5.87548L4.48353 11.668ZM11.0985 5.05298L9.44769 3.40215L10.276 2.57965L11.921 4.22464L11.0985 5.05298Z" fill="#EB5757"/>
</svg>
