<svg width="31" height="32" viewBox="0 0 31 32" fill="none" xmlns="http://www.w3.org/2000/svg">
<path fill-rule="evenodd" clip-rule="evenodd" d="M5.16797 15.9997C5.16797 15.2863 5.74627 14.708 6.45964 14.708H24.543C25.2563 14.708 25.8346 15.2863 25.8346 15.9997C25.8346 16.713 25.2563 17.2913 24.543 17.2913H6.45964C5.74627 17.2913 5.16797 16.713 5.16797 15.9997Z" fill="#4F4F4F"/>
<path fill-rule="evenodd" clip-rule="evenodd" d="M5.54629 15.0863C6.05072 14.5819 6.86855 14.5819 7.37298 15.0863L15.123 22.8363C15.6274 23.3408 15.6274 24.1586 15.123 24.663C14.6186 25.1674 13.8007 25.1674 13.2963 24.663L5.54629 16.913C5.04186 16.4086 5.04186 15.5908 5.54629 15.0863Z" fill="#4F4F4F"/>
<path fill-rule="evenodd" clip-rule="evenodd" d="M15.123 7.33633C15.6274 7.84076 15.6274 8.65859 15.123 9.16302L7.37298 16.913C6.86855 17.4174 6.05072 17.4174 5.54629 16.913C5.04186 16.4086 5.04186 15.5908 5.54629 15.0863L13.2963 7.33633C13.8007 6.8319 14.6186 6.8319 15.123 7.33633Z" fill="#4F4F4F"/>
</svg>
