<svg width="44" height="45" viewBox="0 0 44 45" fill="none" xmlns="http://www.w3.org/2000/svg">
    <rect x="0.5" y="1" width="43" height="43" rx="21.5" fill="white"/>
    <path d="M24 21.5H23V17.5H25C25.2652 17.5 25.5196 17.6054 25.7071 17.7929C25.8946 17.9804 26 18.2348 26 18.5C26 18.7652 26.1054 19.0196 26.2929 19.2071C26.4804 19.3946 26.7348 19.5 27 19.5C27.2652 19.5 27.5196 19.3946 27.7071 19.2071C27.8946 19.0196 28 18.7652 28 18.5C28 17.7044 27.6839 16.9413 27.1213 16.3787C26.5587 15.8161 25.7956 15.5 25 15.5H23V13.5C23 13.2348 22.8946 12.9804 22.7071 12.7929C22.5196 12.6054 22.2652 12.5 22 12.5C21.7348 12.5 21.4804 12.6054 21.2929 12.7929C21.1054 12.9804 21 13.2348 21 13.5V15.5H20C18.9391 15.5 17.9217 15.9214 17.1716 16.6716C16.4214 17.4217 16 18.4391 16 19.5C16 20.5609 16.4214 21.5783 17.1716 22.3284C17.9217 23.0786 18.9391 23.5 20 23.5H21V27.5H19C18.7348 27.5 18.4804 27.3946 18.2929 27.2071C18.1054 27.0196 18 26.7652 18 26.5C18 26.2348 17.8946 25.9804 17.7071 25.7929C17.5196 25.6054 17.2652 25.5 17 25.5C16.7348 25.5 16.4804 25.6054 16.2929 25.7929C16.1054 25.9804 16 26.2348 16 26.5C16 27.2956 16.3161 28.0587 16.8787 28.6213C17.4413 29.1839 18.2044 29.5 19 29.5H21V31.5C21 31.7652 21.1054 32.0196 21.2929 32.2071C21.4804 32.3946 21.7348 32.5 22 32.5C22.2652 32.5 22.5196 32.3946 22.7071 32.2071C22.8946 32.0196 23 31.7652 23 31.5V29.5H24C25.0609 29.5 26.0783 29.0786 26.8284 28.3284C27.5786 27.5783 28 26.5609 28 25.5C28 24.4391 27.5786 23.4217 26.8284 22.6716C26.0783 21.9214 25.0609 21.5 24 21.5ZM21 21.5H20C19.4696 21.5 18.9609 21.2893 18.5858 20.9142C18.2107 20.5391 18 20.0304 18 19.5C18 18.9696 18.2107 18.4609 18.5858 18.0858C18.9609 17.7107 19.4696 17.5 20 17.5H21V21.5ZM24 27.5H23V23.5H24C24.5304 23.5 25.0391 23.7107 25.4142 24.0858C25.7893 24.4609 26 24.9696 26 25.5C26 26.0304 25.7893 26.5391 25.4142 26.9142C25.0391 27.2893 24.5304 27.5 24 27.5Z" fill="#4640DE"/>
    <rect x="0.5" y="1" width="43" height="43" rx="21.5" stroke="#D6DDEB"/>
</svg>
