<svg width="24" height="24" viewBox="0 0 24 24" fill="none" xmlns="http://www.w3.org/2000/svg">
    <path d="M3 14C3.83 14.642 5.077 15.017 6.5 15C7.923 15.017 9.17 14.642 10 14C10.83 13.358 12.077 12.983 13.5 13C14.923 12.983 16.17 13.358 17 14" stroke="#7C8493" stroke-width="2" stroke-linecap="round" stroke-linejoin="round"/>
    <path d="M7.99979 3C7.6833 3.22717 7.42687 3.52797 7.25264 3.87642C7.07842 4.22488 6.99164 4.6105 6.99979 5C6.99164 5.3895 7.07842 5.77512 7.25264 6.12358C7.42687 6.47203 7.6833 6.77283 7.99979 7" stroke="#7C8493" stroke-width="2" stroke-linecap="round" stroke-linejoin="round"/>
    <path d="M11.9998 3C11.6833 3.22717 11.4269 3.52797 11.2526 3.87642C11.0784 4.22488 10.9916 4.6105 10.9998 5C10.9916 5.3895 11.0784 5.77512 11.2526 6.12358C11.4269 6.47203 11.6833 6.77283 11.9998 7" stroke="#7C8493" stroke-width="2" stroke-linecap="round" stroke-linejoin="round"/>
    <path d="M3 10H17V15C17 16.5913 16.3679 18.1174 15.2426 19.2426C14.1174 20.3679 12.5913 21 11 21H9C7.4087 21 5.88258 20.3679 4.75736 19.2426C3.63214 18.1174 3 16.5913 3 15V10Z" stroke="#7C8493" stroke-width="2" stroke-linecap="round" stroke-linejoin="round"/>
    <path d="M16.7461 16.726C17.1927 16.931 17.6828 17.0232 18.1734 16.9944C18.6639 16.9657 19.1399 16.8168 19.5595 16.561C19.9791 16.3052 20.3294 15.9502 20.5796 15.5273C20.8298 15.1043 20.9724 14.6264 20.9946 14.1355C21.0169 13.6446 20.9182 13.1558 20.7073 12.7119C20.4964 12.2681 20.1797 11.8829 19.785 11.5901C19.3903 11.2973 18.9298 11.106 18.4438 11.0329C17.9579 10.9599 17.4614 11.0073 16.9981 11.171" stroke="#7C8493" stroke-width="2" stroke-linecap="round" stroke-linejoin="round"/>
</svg>
