<svg width="15" height="16" viewBox="0 0 15 16" fill="none" xmlns="http://www.w3.org/2000/svg">
    <path d="M12.683 4.00458C12.5212 3.84248 12.2587 3.8422 12.0968 4.00389L7.12335 8.96425L5.32893 7.01533C5.17388 6.84703 4.91173 6.83611 4.74314 6.99114C4.57468 7.1462 4.5639 7.40848 4.71895 7.57694L6.80564 9.84313C6.88206 9.92619 6.98901 9.97442 7.10178 9.97676C7.10481 9.97689 7.10773 9.97689 7.11063 9.97689C7.22023 9.97689 7.32565 9.93336 7.40332 9.85598L12.6822 4.59091C12.8444 4.42924 12.8447 4.16668 12.683 4.00458Z" fill="#7C8493"/>
    <path d="M12.5854 7.58542C12.3564 7.58542 12.1709 7.771 12.1709 8C12.1709 10.5756 10.0756 12.6709 7.5 12.6709C4.92454 12.6709 2.82915 10.5756 2.82915 8C2.82915 5.42454 4.92454 3.32915 7.5 3.32915C7.72898 3.32915 7.91458 3.14356 7.91458 2.91458C7.91458 2.68558 7.72898 2.5 7.5 2.5C4.46727 2.5 2 4.96727 2 8C2 11.0326 4.46727 13.5 7.5 13.5C10.5326 13.5 13 11.0326 13 8C13 7.77102 12.8144 7.58542 12.5854 7.58542Z" fill="#7C8493"/>
</svg>
