<svg width="44" height="45" viewBox="0 0 44 45" fill="none" xmlns="http://www.w3.org/2000/svg">
    <rect x="0.5" y="1" width="43" height="43" rx="21.5" fill="white"/>
    <path d="M18.4678 18.8945L18.4656 18.8964L18.4634 18.8984L18.4678 18.8945ZM28.4219 18.708C28.3523 18.6409 28.2751 18.5823 28.1919 18.5332C28.0741 18.4639 27.9433 18.4194 27.8076 18.4026C27.672 18.3858 27.5343 18.3971 27.4031 18.4356C27.272 18.4741 27.1501 18.5392 27.0451 18.6267C26.9401 18.7142 26.8541 18.8223 26.7925 18.9443C26.448 19.623 25.9729 20.227 25.3945 20.7217C25.483 20.2233 25.5276 19.7181 25.5278 19.2119C25.5297 17.672 25.1234 16.1591 24.3505 14.8273C23.5775 13.4954 22.4654 12.3922 21.1274 11.6299C20.98 11.5463 20.8138 11.5016 20.6444 11.4999C20.475 11.4982 20.3079 11.5395 20.1588 11.62C20.0098 11.7006 19.8836 11.8177 19.7922 11.9603C19.7008 12.103 19.6471 12.2665 19.6362 12.4356C19.5802 13.3837 19.3324 14.3107 18.9076 15.1602C18.4828 16.0098 17.89 16.7643 17.165 17.3779L16.9346 17.5654C16.1765 18.0755 15.5055 18.7043 14.9473 19.4277C14.0796 20.5208 13.4785 21.8011 13.1917 23.1669C12.9049 24.5327 12.9403 25.9466 13.2951 27.2964C13.6498 28.6462 14.3142 29.8948 15.2354 30.9431C16.1567 31.9914 17.3096 32.8107 18.6026 33.3359C18.7544 33.398 18.9191 33.4217 19.0823 33.405C19.2454 33.3883 19.402 33.3317 19.5381 33.2403C19.6742 33.1488 19.7857 33.0252 19.8628 32.8804C19.9399 32.7357 19.9801 32.5742 19.98 32.4102C19.9793 32.3041 19.9625 32.1987 19.9302 32.0977C19.7065 31.2567 19.6421 30.3813 19.7403 29.5166C20.6865 31.3013 22.2054 32.716 24.0528 33.5332C24.2783 33.6341 24.5332 33.6476 24.7681 33.5713C26.2277 33.1002 27.5425 32.2637 28.5878 31.1413C29.633 30.019 30.3739 28.6479 30.74 27.1586C31.1061 25.6692 31.0853 24.111 30.6796 22.6319C30.2739 21.1529 29.4967 19.8021 28.4219 18.708ZM24.5171 31.5391C23.6454 31.0973 22.8765 30.477 22.2603 29.7185C21.6441 28.9601 21.1944 28.0804 20.9405 27.1367C20.8629 26.819 20.8029 26.4972 20.7608 26.1728C20.7322 25.9663 20.6398 25.7738 20.4965 25.6224C20.3532 25.4709 20.1661 25.368 19.9615 25.3281C19.8984 25.3157 19.8343 25.3095 19.77 25.3096C19.5943 25.3095 19.4216 25.3558 19.2694 25.4437C19.1173 25.5317 18.991 25.6582 18.9033 25.8106C18.0736 27.2417 17.6563 28.8746 17.6978 30.5283C16.968 29.9609 16.3581 29.2544 15.9034 28.4495C15.4488 27.6447 15.1584 26.7576 15.049 25.8397C14.9397 24.9218 15.0137 23.9914 15.2666 23.1023C15.5195 22.2132 15.9464 21.3831 16.5225 20.6602C16.9599 20.092 17.4876 19.5995 18.0845 19.2022C18.1103 19.1855 18.1351 19.1672 18.1587 19.1475C18.1587 19.1475 18.4554 18.902 18.4655 18.8964C19.8902 17.6914 20.9035 16.0719 21.3643 14.2637C22.4538 15.2709 23.1804 16.6097 23.431 18.0722C23.6817 19.5347 23.4425 21.039 22.7505 22.3516C22.6591 22.5267 22.6216 22.725 22.6427 22.9215C22.6639 23.1179 22.7427 23.3037 22.8693 23.4554C22.9959 23.6071 23.1646 23.7178 23.3541 23.7738C23.5436 23.8297 23.7454 23.8282 23.9341 23.7696C25.4659 23.2894 26.8138 22.3515 27.7964 21.0821C28.3869 21.9544 28.773 22.9487 28.9259 23.9909C29.0787 25.0332 28.9944 26.0965 28.6792 27.1016C28.364 28.1068 27.826 29.0278 27.1054 29.7961C26.3847 30.5644 25.5 31.1602 24.5171 31.5391L24.5171 31.5391Z" fill="#4640DE"/>
    <rect x="0.5" y="1" width="43" height="43" rx="21.5" stroke="#D6DDEB"/>
</svg>
