<svg width="49" height="50" viewBox="0 0 49 50" fill="none" xmlns="http://www.w3.org/2000/svg">
    <path fill-rule="evenodd" clip-rule="evenodd" d="M10.5181 11.2128C10.9776 10.7535 11.6006 10.4955 12.2503 10.4955C12.8999 10.4955 13.523 10.7535 13.9824 11.2128L24.5003 21.7307L35.0181 11.2128C35.2441 10.9788 35.5145 10.7922 35.8134 10.6638C36.1123 10.5353 36.4338 10.4678 36.7591 10.4649C37.0844 10.4621 37.407 10.5241 37.7081 10.6473C38.0092 10.7705 38.2827 10.9524 38.5128 11.1824C38.7428 11.4125 38.9247 11.686 39.0479 11.9871C39.1711 12.2882 39.2331 12.6108 39.2303 12.9361C39.2274 13.2614 39.1599 13.5829 39.0315 13.8818C38.903 14.1808 38.7164 14.4511 38.4824 14.6771L27.9646 25.195L38.4824 35.7128C38.9287 36.1749 39.1756 36.7938 39.1701 37.4361C39.1645 38.0785 38.9068 38.693 38.4526 39.1473C37.9983 39.6015 37.3838 39.8592 36.7414 39.8647C36.0991 39.8703 35.4802 39.6234 35.0181 39.1771L24.5003 28.6592L13.9824 39.1771C13.5203 39.6234 12.9015 39.8703 12.2591 39.8647C11.6167 39.8592 11.0022 39.6015 10.548 39.1473C10.0937 38.693 9.83604 38.0785 9.83046 37.4361C9.82487 36.7938 10.0718 36.1749 10.5181 35.7128L21.036 25.195L10.5181 14.6771C10.0588 14.2177 9.80078 13.5946 9.80078 12.9449C9.80078 12.2953 10.0588 11.6722 10.5181 11.2128Z" fill="#25324B"/>
</svg>
