<svg width="18" height="18" viewBox="0 0 18 18" fill="none" xmlns="http://www.w3.org/2000/svg">
<g opacity="0.5">
<path fill-rule="evenodd" clip-rule="evenodd" d="M9 3.75C8.60218 3.75 8.22064 3.90804 7.93934 4.18934C7.65804 4.47064 7.5 4.85218 7.5 5.25C7.5 5.64783 7.65804 6.02936 7.93934 6.31066C8.22064 6.59196 8.60217 6.75 9 6.75C9.39783 6.75 9.77936 6.59196 10.0607 6.31066C10.342 6.02936 10.5 5.64783 10.5 5.25C10.5 4.85218 10.342 4.47064 10.0607 4.18934C9.77936 3.90804 9.39782 3.75 9 3.75ZM6.87868 3.12868C7.44129 2.56607 8.20435 2.25 9 2.25C9.79565 2.25 10.5587 2.56607 11.1213 3.12868C11.6839 3.69129 12 4.45435 12 5.25C12 6.04565 11.6839 6.80871 11.1213 7.37132C10.5587 7.93393 9.79565 8.25 9 8.25C8.20435 8.25 7.44129 7.93393 6.87868 7.37132C6.31607 6.80871 6 6.04565 6 5.25C6 4.45435 6.31607 3.69129 6.87868 3.12868ZM3.75 6.75C3.55109 6.75 3.36032 6.82902 3.21967 6.96967C3.07902 7.11032 3 7.30109 3 7.5C3 7.69891 3.07902 7.88968 3.21967 8.03033C3.36032 8.17098 3.55109 8.25 3.75 8.25C3.94891 8.25 4.13968 8.17098 4.28033 8.03033C4.42098 7.88968 4.5 7.69891 4.5 7.5C4.5 7.30109 4.42098 7.11032 4.28033 6.96967C4.13968 6.82902 3.94891 6.75 3.75 6.75ZM2.15901 5.90901C2.58097 5.48705 3.15326 5.25 3.75 5.25C4.34674 5.25 4.91903 5.48705 5.34099 5.90901C5.76295 6.33097 6 6.90326 6 7.5C6 8.09674 5.76295 8.66903 5.34099 9.09099C4.91903 9.51295 4.34674 9.75 3.75 9.75C3.15326 9.75 2.58097 9.51295 2.15901 9.09099C1.73705 8.66903 1.5 8.09674 1.5 7.5C1.5 6.90326 1.73705 6.33097 2.15901 5.90901ZM14.25 6.75C14.0511 6.75 13.8603 6.82902 13.7197 6.96967C13.579 7.11032 13.5 7.30109 13.5 7.5C13.5 7.69891 13.579 7.88968 13.7197 8.03033C13.8603 8.17098 14.0511 8.25 14.25 8.25C14.4489 8.25 14.6397 8.17098 14.7803 8.03033C14.921 7.88968 15 7.69891 15 7.5C15 7.30109 14.921 7.11032 14.7803 6.96967C14.6397 6.82902 14.4489 6.75 14.25 6.75ZM12.659 5.90901C13.081 5.48705 13.6533 5.25 14.25 5.25C14.8467 5.25 15.419 5.48705 15.841 5.90901C16.2629 6.33097 16.5 6.90326 16.5 7.5C16.5 8.09674 16.2629 8.66903 15.841 9.09099C15.419 9.51295 14.8467 9.75 14.25 9.75C13.6533 9.75 13.081 9.51295 12.659 9.09099C12.2371 8.66903 12 8.09674 12 7.5C12 6.90326 12.2371 6.33097 12.659 5.90901ZM9 10.4995C8.40019 10.4995 7.81414 10.6792 7.31743 11.0154C6.84921 11.3324 6.48063 11.7747 6.25324 12.2909L6.07241 14.25H11.9276L11.7468 12.2909C11.5194 11.7747 11.1508 11.3324 10.6826 11.0154C10.1859 10.6792 9.59981 10.4995 9 10.4995ZM13.5 14.25H15.75V13.5001C15.75 13.5 15.75 13.5001 15.75 13.5001C15.75 13.1883 15.6528 12.8843 15.4721 12.6304C15.2913 12.3764 15.0359 12.185 14.7414 12.0829C14.4468 11.9808 14.1278 11.973 13.8286 12.0606C13.6511 12.1125 13.4857 12.1966 13.3403 12.3075C13.4446 12.6881 13.5 13.0882 13.5 13.5V14.25ZM12.6973 10.9332C12.3825 10.4799 11.9853 10.0859 11.5234 9.77326C10.7785 9.26899 9.89956 8.99947 9 8.99947C8.10044 8.99947 7.2215 9.26899 6.47657 9.77326C6.01472 10.0859 5.61751 10.4799 5.30268 10.9332C5.08181 10.7996 4.84337 10.6943 4.59274 10.621C3.99438 10.4458 3.35632 10.4615 2.76725 10.6657C2.17819 10.8699 1.66739 11.2526 1.30586 11.7606C0.944336 12.2685 0.750046 12.8765 0.75 13.4999V15C0.75 15.4142 1.08579 15.75 1.5 15.75H16.5C16.9142 15.75 17.25 15.4142 17.25 15V13.5C17.25 12.8765 17.0557 12.2685 16.6941 11.7606C16.3326 11.2526 15.8218 10.8699 15.2327 10.6657C14.6437 10.4615 14.0056 10.4458 13.4073 10.621C13.1566 10.6943 12.9182 10.7996 12.6973 10.9332ZM4.65971 12.3075C4.51428 12.1966 4.34894 12.1125 4.17137 12.0606C3.87219 11.973 3.55316 11.9808 3.25863 12.0829C2.96409 12.185 2.70869 12.3764 2.52793 12.6304C2.34718 12.8843 2.25003 13.1883 2.25 13.5C2.25 13.5 2.25 13.5 2.25 13.5V14.25H4.5V13.5C4.5 13.0882 4.55538 12.6881 4.65971 12.3075Z" fill="#4640DE"/>
</g>
</svg>
