<svg width="22" height="22" viewBox="0 0 22 22" fill="none" xmlns="http://www.w3.org/2000/svg">
  <path fill-rule="evenodd" clip-rule="evenodd" d="M2.50984 1.88285C2.29238 1.94554 1.94772 2.30114 1.88481 2.52786C1.84987 2.6537 1.83364 4.53151 1.8335 8.4777C1.83326 13.583 1.84171 14.264 1.90734 14.4212C2.00132 14.6463 2.18847 14.844 2.42016 14.9632C2.58927 15.0502 2.69007 15.0555 3.9273 15.0424C5.25211 15.0283 5.2533 15.0282 5.42933 14.909C5.52622 14.8434 5.66421 14.7055 5.73595 14.6028C5.8505 14.4387 5.86645 14.3712 5.86645 14.0503C5.86645 13.7391 5.84869 13.6584 5.74712 13.5084C5.68149 13.4114 5.54379 13.2733 5.44117 13.2016C5.26223 13.0764 5.22638 13.0704 4.57008 13.0556L3.88563 13.0401V8.46071V3.8813H8.46423H13.0428L13.0583 4.56588C13.0731 5.22229 13.0791 5.25814 13.2043 5.43711C13.276 5.53975 13.414 5.67748 13.511 5.74312C13.661 5.84471 13.7417 5.86247 14.0528 5.86247C14.3737 5.86247 14.4412 5.84652 14.6052 5.73195C14.708 5.6602 14.8458 5.52218 14.9114 5.42527C15.0306 5.24921 15.0307 5.24802 15.0447 3.92298C15.0579 2.68554 15.0526 2.58471 14.9656 2.41557C14.8464 2.18385 14.6487 1.99666 14.4237 1.90267C14.2664 1.83693 13.5893 1.829 8.45736 1.83282C4.92506 1.83545 2.60664 1.85498 2.50984 1.88285ZM8.61935 7.99344C8.40189 8.05612 8.05723 8.41173 7.99432 8.63844C7.92301 8.89513 7.92301 19.2043 7.99432 19.461C8.06124 19.7021 8.38805 20.0262 8.64036 20.1016C8.92492 20.1866 19.1795 20.1866 19.4641 20.1016C19.7177 20.0258 20.0273 19.7162 20.103 19.4625C20.1881 19.1779 20.1881 8.92148 20.103 8.63686C20.0273 8.38323 19.7177 8.07359 19.4641 7.99783C19.2183 7.92436 8.87357 7.92021 8.61935 7.99344Z" fill="#4640DE"/>
</svg>
