<svg width="38" height="38" viewBox="0 0 38 38" fill="none" xmlns="http://www.w3.org/2000/svg">
<g clip-path="url(#clip0)">
<path d="M32.435 5.56496C28.8465 1.97636 24.075 0 19 0C13.925 0 9.15355 1.97636 5.56496 5.56496C1.97636 9.15355 0 13.925 0 19C0 24.0753 1.97636 28.8465 5.56496 32.435C9.15355 36.0236 13.925 38 19 38C24.075 38 28.8465 36.0236 32.435 32.435C36.0236 28.8465 38 24.0753 38 19C38 13.925 36.0236 9.15355 32.435 5.56496ZM27.218 24.5937C27.9425 25.3185 27.9425 26.4932 27.218 27.2177C26.8556 27.5801 26.3807 27.7613 25.9058 27.7613C25.4309 27.7613 24.9561 27.5801 24.5937 27.2177L19 21.624L13.4063 27.218C13.0439 27.5801 12.5691 27.7613 12.0942 27.7613C11.6193 27.7613 11.1444 27.5801 10.782 27.218C10.0575 26.4932 10.0575 25.3185 10.782 24.5939L16.376 19L10.782 13.4063C10.0575 12.6815 10.0575 11.5068 10.782 10.7823C11.5068 10.0575 12.6815 10.0575 13.4061 10.7823L19 16.376L24.5937 10.7823C25.3185 10.0578 26.4932 10.0575 27.2177 10.7823C27.9425 11.5068 27.9425 12.6815 27.2177 13.4063L21.624 19L27.218 24.5937Z" fill="#EB5757"/>
</g>
<defs>
<clipPath id="clip0">
<rect width="38" height="38" fill="#EB5757"/>
</clipPath>
</defs>
</svg>
