<svg width="20" height="20" viewBox="0 0 20 20" fill="none" xmlns="http://www.w3.org/2000/svg">
<rect x="0.5" y="0.5" width="19" height="19" rx="9.5" fill="#F7F7F7"/>
<path fill-rule="evenodd" clip-rule="evenodd" d="M6.86123 6.86127C6.96437 6.75816 7.10424 6.70024 7.25008 6.70024C7.39592 6.70024 7.53579 6.75816 7.63893 6.86127L10.0001 9.22242L12.3612 6.86127C12.412 6.80874 12.4727 6.76684 12.5398 6.73801C12.6069 6.70919 12.679 6.69401 12.7521 6.69338C12.8251 6.69275 12.8975 6.70666 12.9651 6.73432C13.0327 6.76197 13.0941 6.80281 13.1457 6.85445C13.1974 6.90609 13.2382 6.9675 13.2659 7.03509C13.2935 7.10269 13.3074 7.17511 13.3068 7.24814C13.3062 7.32117 13.291 7.39334 13.2622 7.46044C13.2334 7.52754 13.1915 7.58823 13.1389 7.63897L10.7778 10.0001L13.1389 12.3613C13.2391 12.465 13.2946 12.6039 13.2933 12.7481C13.292 12.8923 13.2342 13.0303 13.1322 13.1323C13.0303 13.2342 12.8923 13.2921 12.7481 13.2933C12.6039 13.2946 12.465 13.2392 12.3612 13.139L10.0001 10.7778L7.63893 13.139C7.5352 13.2392 7.39627 13.2946 7.25206 13.2933C7.10785 13.2921 6.9699 13.2342 6.86793 13.1323C6.76595 13.0303 6.70811 12.8923 6.70686 12.7481C6.7056 12.6039 6.76104 12.465 6.86123 12.3613L9.22238 10.0001L6.86123 7.63897C6.75812 7.53583 6.7002 7.39596 6.7002 7.25012C6.7002 7.10428 6.75812 6.96441 6.86123 6.86127Z" fill="#25324B"/>
</svg>
