<svg width="18" height="18" viewBox="0 0 18 18" fill="none" xmlns="http://www.w3.org/2000/svg">
    <g opacity="0.5">
        <path d="M2.25 15.7502H5.25L15 6.00023C15.3978 5.6024 15.6213 5.06284 15.6213 4.50023C15.6213 3.93762 15.3978 3.39805 15 3.00023C14.6022 2.6024 14.0626 2.37891 13.5 2.37891C12.9374 2.37891 12.3978 2.6024 12 3.00023L2.25 12.7502V15.7502Z" stroke="#4640DE" stroke-width="1.5" stroke-linecap="round" stroke-linejoin="round"/>
        <path d="M10.875 4.125L13.875 7.125" stroke="#4640DE" stroke-width="1.5" stroke-linecap="round" stroke-linejoin="round"/>
        <path d="M9 6L5.25 2.25L2.25 5.25L6 9" stroke="#4640DE" stroke-width="1.5" stroke-linecap="round" stroke-linejoin="round"/>
        <path d="M5.25 6L4.125 7.125" stroke="#4640DE" stroke-width="1.5" stroke-linecap="round" stroke-linejoin="round"/>
        <path d="M12 9L15.75 12.75L12.75 15.75L9 12" stroke="#4640DE" stroke-width="1.5" stroke-linecap="round" stroke-linejoin="round"/>
        <path d="M12 12.75L10.875 13.875" stroke="#4640DE" stroke-width="1.5" stroke-linecap="round" stroke-linejoin="round"/>
    </g>
</svg>
