<svg width="9" height="10" viewBox="0 0 9 10" fill="none" xmlns="http://www.w3.org/2000/svg">
    <path fill-rule="evenodd" clip-rule="evenodd" d="M1.86848 2.55458C1.95 2.47309 2.06054 2.42731 2.17581 2.42731C2.29107 2.42731 2.40162 2.47309 2.48313 2.55458L4.34926 4.4207L6.21538 2.55458C6.25548 2.51306 6.30344 2.47995 6.35648 2.45717C6.40951 2.43438 6.46655 2.42239 6.52427 2.42189C6.58199 2.42139 6.63923 2.43239 6.69265 2.45424C6.74607 2.4761 6.7946 2.50838 6.83542 2.54919C6.87623 2.59001 6.90851 2.63854 6.93036 2.69196C6.95222 2.74538 6.96322 2.80262 6.96272 2.86034C6.96222 2.91806 6.95022 2.9751 6.92744 3.02813C6.90466 3.08117 6.87155 3.12913 6.83003 3.16923L4.96391 5.03535L6.83003 6.90148C6.90921 6.98346 6.95302 7.09326 6.95203 7.20724C6.95104 7.32121 6.90533 7.43024 6.82473 7.51083C6.74414 7.59143 6.63511 7.63714 6.52114 7.63813C6.40716 7.63912 6.29736 7.59531 6.21538 7.51613L4.34926 5.65L2.48313 7.51613C2.40115 7.59531 2.29135 7.63912 2.17737 7.63813C2.0634 7.63714 1.95437 7.59143 1.87378 7.51083C1.79318 7.43024 1.74747 7.32121 1.74648 7.20724C1.74549 7.09326 1.7893 6.98346 1.86848 6.90148L3.7346 5.03535L1.86848 3.16923C1.78699 3.08772 1.74121 2.97717 1.74121 2.86191C1.74121 2.74664 1.78699 2.6361 1.86848 2.55458Z" fill="white"/>
</svg>
