<svg width="17" height="17" viewBox="0 0 17 17" fill="none" xmlns="http://www.w3.org/2000/svg">
<path d="M8.5332 0C3.86451 0 0 3.79811 0 8.4668C0 13.1355 3.86451 17 8.5332 17C13.2019 17 17 13.1355 17 8.4668C17 3.79811 13.2019 0 8.5332 0ZM12.7241 11.2489C13.1126 11.6374 13.1126 12.2692 12.7241 12.658C12.3386 13.0432 11.7068 13.0495 11.315 12.658L8.5332 9.87527L5.68471 12.6584C5.29623 13.0468 4.66438 13.0468 4.27557 12.6584C3.88709 12.2699 3.88709 11.638 4.27557 11.2492L7.05799 8.4668L4.27557 5.68437C3.88709 5.29557 3.88709 4.66371 4.27557 4.27523C4.66438 3.88676 5.29623 3.88676 5.68471 4.27523L8.5332 7.05832L11.315 4.27523C11.7028 3.88742 12.3346 3.88609 12.7241 4.27523C13.1126 4.66371 13.1126 5.29557 12.7241 5.68437L9.94168 8.4668L12.7241 11.2489Z" fill="black"/>
</svg>
