<svg width="14" height="15" viewBox="0 0 14 15" fill="none" xmlns="http://www.w3.org/2000/svg">
<path d="M12.8346 4.72367C12.8351 4.6469 12.8204 4.5708 12.7913 4.49972C12.7623 4.42865 12.7195 4.36401 12.6655 4.3095L10.1921 1.83617C10.1376 1.7821 10.073 1.73933 10.0019 1.7103C9.93085 1.68127 9.85475 1.66656 9.77798 1.667C9.70121 1.66656 9.62511 1.68127 9.55403 1.7103C9.48296 1.73933 9.41832 1.7821 9.36381 1.83617L7.71298 3.487L1.33715 9.86284C1.28308 9.91734 1.24031 9.98199 1.21128 10.0531C1.18225 10.1241 1.16753 10.2002 1.16798 10.277V12.7503C1.16798 12.905 1.22944 13.0534 1.33883 13.1628C1.44823 13.2722 1.5966 13.3337 1.75131 13.3337H4.22465C4.30627 13.3381 4.38792 13.3253 4.46429 13.2962C4.54066 13.2671 4.61006 13.2222 4.66798 13.1645L11.0088 6.78867L12.6655 5.167C12.7187 5.11047 12.7621 5.0454 12.7938 4.9745C12.7994 4.928 12.7994 4.881 12.7938 4.8345C12.7965 4.80735 12.7965 4.77999 12.7938 4.75284L12.8346 4.72367ZM3.98548 12.167H2.33465V10.5162L8.12715 4.72367L9.77798 6.3745L3.98548 12.167ZM10.6005 5.552L8.94965 3.90117L9.77798 3.07867L11.423 4.72367L10.6005 5.552Z" fill="#4640DE"/>
</svg>
