<svg width="15" height="16" viewBox="0 0 15 16" fill="none" xmlns="http://www.w3.org/2000/svg">
    <path d="M1.87451 9.31019C2.01514 9.31019 2.15435 9.24738 2.24623 9.12738L2.45014 8.86253C2.75529 10.6728 4.02326 12.2216 5.82326 12.8464C6.37732 13.0386 6.94592 13.131 7.50701 13.131C9.18701 13.131 10.8037 12.3022 11.7717 10.843C11.9147 10.6274 11.8556 10.3363 11.64 10.1933C11.4234 10.0494 11.1337 10.1094 10.9898 10.325C9.9356 11.916 7.93732 12.5891 6.13123 11.961C4.63264 11.4407 3.58732 10.1361 3.3642 8.62113L3.76545 8.93003C3.97123 9.08706 4.26514 9.04956 4.42264 8.84425C4.5806 8.63894 4.54264 8.34503 4.33732 8.18706C4.33732 8.18706 3.22873 7.33347 3.22592 7.33159C2.99295 7.15206 2.66154 7.05128 2.4506 7.32644L1.50373 8.55597C1.34576 8.76128 1.38373 9.05519 1.58904 9.21316C1.67389 9.27831 1.77467 9.31019 1.87451 9.31019V9.31019Z" fill="#7C8493"/>
    <path d="M3.35818 5.81291C3.57334 5.95588 3.86443 5.89681 4.00834 5.68119C5.06256 4.09072 7.06271 3.41759 8.86693 4.04525C10.3655 4.56556 11.4108 5.87009 11.634 7.38509L11.2327 7.07619C11.0269 6.91869 10.733 6.95619 10.5755 7.16197C10.4176 7.36728 10.4555 7.66119 10.6608 7.81916C10.6608 7.81916 11.7694 8.67228 11.7722 8.67463C12.0094 8.85697 12.3333 8.95916 12.5476 8.67978L13.4944 7.45025C13.6524 7.24494 13.6144 6.95103 13.4091 6.79306C13.2038 6.63509 12.9094 6.67353 12.7519 6.87884L12.548 7.14369C12.2429 5.33338 10.9749 3.78462 9.1749 3.15978C6.9624 2.39197 4.5174 3.21556 3.22646 5.16275C3.08349 5.37884 3.14256 5.66947 3.35818 5.81291V5.81291Z" fill="#7C8493"/>
</svg>
