<svg width="18" height="19" viewBox="0 0 18 19" fill="none" xmlns="http://www.w3.org/2000/svg">
    <g opacity="0.5">
        <path d="M7.74375 3.73775C8.06325 2.42075 9.93675 2.42075 10.2563 3.73775C10.3042 3.9356 10.3982 4.11933 10.5305 4.274C10.6629 4.42867 10.8299 4.54989 11.018 4.62781C11.2061 4.70573 11.4099 4.73814 11.6128 4.7224C11.8158 4.70667 12.0122 4.64323 12.186 4.53725C13.3432 3.83225 14.6685 5.15675 13.9635 6.31475C13.8577 6.48849 13.7943 6.68475 13.7786 6.88758C13.7629 7.09041 13.7953 7.29408 13.8731 7.48203C13.951 7.66999 14.0721 7.83693 14.2265 7.96929C14.381 8.10164 14.5646 8.19568 14.7623 8.24375C16.0793 8.56325 16.0793 10.4368 14.7623 10.7563C14.5644 10.8042 14.3807 10.8982 14.226 11.0305C14.0713 11.1629 13.9501 11.3299 13.8722 11.518C13.7943 11.7061 13.7619 11.9099 13.7776 12.1128C13.7933 12.3158 13.8568 12.5122 13.9628 12.686C14.6678 13.8432 13.3432 15.1685 12.1852 14.4635C12.0115 14.3577 11.8152 14.2943 11.6124 14.2786C11.4096 14.2629 11.2059 14.2953 11.018 14.3731C10.83 14.451 10.6631 14.5721 10.5307 14.7265C10.3984 14.881 10.3043 15.0646 10.2563 15.2623C9.93675 16.5793 8.06325 16.5793 7.74375 15.2623C7.69581 15.0644 7.60183 14.8807 7.46947 14.726C7.3371 14.5713 7.17008 14.4501 6.98201 14.3722C6.79394 14.2943 6.59013 14.2619 6.38716 14.2776C6.1842 14.2933 5.98781 14.3568 5.814 14.4628C4.65675 15.1678 3.3315 13.8432 4.0365 12.6852C4.14233 12.5115 4.20566 12.3152 4.22136 12.1124C4.23706 11.9096 4.20468 11.7059 4.12685 11.518C4.04903 11.33 3.92795 11.1631 3.77345 11.0307C3.61896 10.8984 3.43542 10.8043 3.23775 10.7563C1.92075 10.4368 1.92075 8.56325 3.23775 8.24375C3.4356 8.19581 3.61933 8.10183 3.774 7.96947C3.92867 7.8371 4.04989 7.67008 4.12781 7.48201C4.20573 7.29394 4.23814 7.09013 4.2224 6.88716C4.20667 6.6842 4.14323 6.48781 4.03725 6.314C3.33225 5.15675 4.65675 3.8315 5.81475 4.5365C6.56175 4.9925 7.53675 4.589 7.74375 3.73775Z" stroke="#4640DE" stroke-width="1.5" stroke-linecap="round" stroke-linejoin="round"/>
        <path d="M11.25 9.5C11.25 10.0967 11.0129 10.669 10.591 11.091C10.169 11.5129 9.59674 11.75 9 11.75C8.40326 11.75 7.83097 11.5129 7.40901 11.091C6.98705 10.669 6.75 10.0967 6.75 9.5C6.75 8.90326 6.98705 8.33097 7.40901 7.90901C7.83097 7.48705 8.40326 7.25 9 7.25C9.59674 7.25 10.169 7.48705 10.591 7.90901C11.0129 8.33097 11.25 8.90326 11.25 9.5V9.5Z" stroke="#4640DE" stroke-width="1.5" stroke-linecap="round" stroke-linejoin="round"/>
    </g>
</svg>
