<svg width="34" height="34" viewBox="0 0 34 34" fill="none" xmlns="http://www.w3.org/2000/svg">
    <path fill-rule="evenodd" clip-rule="evenodd" d="M7.29852 7.29829C7.61732 6.97959 8.04964 6.80055 8.50042 6.80055C8.9512 6.80055 9.38352 6.97959 9.70232 7.29829L17.0004 14.5964L24.2985 7.29829C24.4553 7.13592 24.6429 7.00641 24.8503 6.91731C25.0577 6.82822 25.2808 6.78132 25.5065 6.77936C25.7323 6.7774 25.9561 6.82041 26.165 6.90589C26.374 6.99137 26.5638 7.1176 26.7234 7.27722C26.883 7.43683 27.0092 7.62664 27.0947 7.83556C27.1802 8.04449 27.2232 8.26834 27.2212 8.49407C27.2193 8.71979 27.1724 8.94287 27.0833 9.15027C26.9942 9.35768 26.8647 9.54527 26.7023 9.70209L19.4042 17.0002L26.7023 24.2983C27.012 24.6189 27.1833 25.0483 27.1795 25.4941C27.1756 25.9398 26.9968 26.3662 26.6816 26.6814C26.3664 26.9966 25.94 27.1754 25.4943 27.1792C25.0486 27.1831 24.6191 27.0118 24.2985 26.7021L17.0004 19.404L9.70232 26.7021C9.38169 27.0118 8.95227 27.1831 8.50654 27.1792C8.0608 27.1754 7.63442 26.9966 7.31923 26.6814C7.00403 26.3662 6.82525 25.9398 6.82137 25.4941C6.8175 25.0483 6.98885 24.6189 7.29852 24.2983L14.5966 17.0002L7.29852 9.70209C6.97982 9.38329 6.80078 8.95097 6.80078 8.50019C6.80078 8.04941 6.97982 7.61708 7.29852 7.29829Z" fill="#25324B"/>
</svg>
