<svg width="20" height="20" viewBox="0 0 20 20" fill="none" xmlns="http://www.w3.org/2000/svg">
    <path d="M3.33325 5.83203H16.6666" stroke="#EB5757" stroke-width="2" stroke-linecap="round" stroke-linejoin="round"/>
    <path d="M8.33325 9.16797V14.168" stroke="#EB5757" stroke-width="2" stroke-linecap="round" stroke-linejoin="round"/>
    <path d="M11.6667 9.16797V14.168" stroke="#EB5757" stroke-width="2" stroke-linecap="round" stroke-linejoin="round"/>
    <path d="M4.16675 5.83203L5.00008 15.832C5.00008 16.2741 5.17568 16.698 5.48824 17.0105C5.8008 17.3231 6.22472 17.4987 6.66675 17.4987H13.3334C13.7754 17.4987 14.1994 17.3231 14.5119 17.0105C14.8245 16.698 15.0001 16.2741 15.0001 15.832L15.8334 5.83203" stroke="#EB5757" stroke-width="2" stroke-linecap="round" stroke-linejoin="round"/>
    <path d="M7.5 5.83333V3.33333C7.5 3.11232 7.5878 2.90036 7.74408 2.74408C7.90036 2.5878 8.11232 2.5 8.33333 2.5H11.6667C11.8877 2.5 12.0996 2.5878 12.2559 2.74408C12.4122 2.90036 12.5 3.11232 12.5 3.33333V5.83333" stroke="#EB5757" stroke-width="2" stroke-linecap="round" stroke-linejoin="round"/>
</svg>
