<svg width="16" height="16" viewBox="0 0 16 16" fill="none" xmlns="http://www.w3.org/2000/svg">
<path d="M8.00039 9.60039C8.42474 9.60039 8.8317 9.43182 9.13176 9.13176C9.43182 8.8317 9.60039 8.42474 9.60039 8.00039C9.60039 7.57604 9.43182 7.16908 9.13176 6.86902C8.8317 6.56896 8.42474 6.40039 8.00039 6.40039C7.57604 6.40039 7.16908 6.56896 6.86902 6.86902C6.56896 7.16908 6.40039 7.57604 6.40039 8.00039C6.40039 8.42474 6.56896 8.8317 6.86902 9.13176C7.16908 9.43182 7.57604 9.60039 8.00039 9.60039Z" fill="#A8ADB7"/>
<path fill-rule="evenodd" clip-rule="evenodd" d="M0.367188 8.00039C1.38639 4.75479 4.41839 2.40039 8.00079 2.40039C11.5832 2.40039 14.6152 4.75479 15.6344 8.00039C14.6152 11.246 11.5832 13.6004 8.00079 13.6004C4.41839 13.6004 1.38639 11.246 0.367188 8.00039ZM11.2008 8.00039C11.2008 8.84908 10.8636 9.66302 10.2635 10.2631C9.66341 10.8632 8.84948 11.2004 8.00079 11.2004C7.15209 11.2004 6.33816 10.8632 5.73805 10.2631C5.13793 9.66302 4.80079 8.84908 4.80079 8.00039C4.80079 7.1517 5.13793 6.33777 5.73805 5.73765C6.33816 5.13753 7.15209 4.80039 8.00079 4.80039C8.84948 4.80039 9.66341 5.13753 10.2635 5.73765C10.8636 6.33777 11.2008 7.1517 11.2008 8.00039Z" fill="#A8ADB7"/>
<g filter="url(#filter0_d_3939_80571)">
<rect x="1.50195" y="2" width="16.6543" height="1" rx="0.5" transform="rotate(38.7463 1.50195 2)" fill="#A8ADB7"/>
</g>
<defs>
<filter id="filter0_d_3939_80571" x="1.07812" y="2.20312" width="13.2109" height="11.7969" filterUnits="userSpaceOnUse" color-interpolation-filters="sRGB">
<feFlood flood-opacity="0" result="BackgroundImageFix"/>
<feColorMatrix in="SourceAlpha" type="matrix" values="0 0 0 0 0 0 0 0 0 0 0 0 0 0 0 0 0 0 127 0" result="hardAlpha"/>
<feOffset dy="1"/>
<feComposite in2="hardAlpha" operator="out"/>
<feColorMatrix type="matrix" values="0 0 0 0 1 0 0 0 0 1 0 0 0 0 1 0 0 0 1 0"/>
<feBlend mode="normal" in2="BackgroundImageFix" result="effect1_dropShadow_3939_80571"/>
<feBlend mode="normal" in="SourceGraphic" in2="effect1_dropShadow_3939_80571" result="shape"/>
</filter>
</defs>
</svg>
