<svg width="33" height="34" viewBox="0 0 33 34" fill="none" xmlns="http://www.w3.org/2000/svg">
<path fill-rule="evenodd" clip-rule="evenodd" d="M5.5 17C5.5 16.2406 6.11561 15.625 6.875 15.625H26.125C26.8844 15.625 27.5 16.2406 27.5 17C27.5 17.7594 26.8844 18.375 26.125 18.375H6.875C6.11561 18.375 5.5 17.7594 5.5 17Z" fill="#3D98FF"/>
<path fill-rule="evenodd" clip-rule="evenodd" d="M5.90273 16.0277C6.4397 15.4908 7.3103 15.4908 7.84727 16.0277L16.0973 24.2777C16.6342 24.8147 16.6342 25.6853 16.0973 26.2223C15.5603 26.7592 14.6897 26.7592 14.1527 26.2223L5.90273 17.9723C5.36576 17.4353 5.36576 16.5647 5.90273 16.0277Z" fill="#3D98FF"/>
<path fill-rule="evenodd" clip-rule="evenodd" d="M16.0973 7.77773C16.6342 8.3147 16.6342 9.1853 16.0973 9.72227L7.84727 17.9723C7.3103 18.5092 6.4397 18.5092 5.90273 17.9723C5.36576 17.4353 5.36576 16.5647 5.90273 16.0277L14.1527 7.77773C14.6897 7.24076 15.5603 7.24076 16.0973 7.77773Z" fill="#3D98FF"/>
</svg>
