<svg width="24" height="24" viewBox="0 0 24 24" fill="none" xmlns="http://www.w3.org/2000/svg">
<path fill-rule="evenodd" clip-rule="evenodd" d="M13.9599 8.99858C13.4084 9.02798 12.9375 8.60474 12.9081 8.05323C12.868 7.30055 12.8189 6.7044 12.7698 6.23854C12.7038 5.61292 12.3195 5.23278 11.7667 5.16959C10.9731 5.07886 9.77205 5 7.99981 5C6.22756 5 5.02653 5.07886 4.23287 5.16959C3.67916 5.23289 3.29594 5.61206 3.23001 6.23675C3.11455 7.33078 2.99981 9.13925 2.99981 12C2.99981 14.8608 3.11455 16.6692 3.23001 17.7632C3.29594 18.3879 3.67916 18.7671 4.23288 18.8304C5.02653 18.9211 6.22756 19 7.99981 19C9.77205 19 10.9731 18.9211 11.7667 18.8304C12.3195 18.7672 12.7038 18.3871 12.7698 17.7615C12.8189 17.2956 12.868 16.6995 12.9081 15.9468C12.9375 15.3953 13.4084 14.972 13.9599 15.0014C14.5114 15.0308 14.9347 15.5017 14.9053 16.0532C14.8636 16.8361 14.8119 17.4669 14.7588 17.9712C14.6022 19.4556 13.5491 20.6397 11.9939 20.8175C11.1075 20.9188 9.82829 21 7.99981 21C6.17133 21 4.89209 20.9188 4.00572 20.8175C2.45144 20.6398 1.39782 19.4585 1.24106 17.9732C1.11639 16.7919 0.999808 14.9108 0.999808 12C0.999808 9.08921 1.11639 7.20806 1.24106 6.02683C1.39782 4.54151 2.45144 3.36021 4.00572 3.18253C4.89209 3.0812 6.17133 3 7.99981 3C9.82829 3 11.1075 3.0812 11.9939 3.18253C13.5491 3.36031 14.6022 4.54436 14.7588 6.02877C14.8119 6.53306 14.8636 7.16393 14.9053 7.94676C14.9347 8.49827 14.5114 8.96918 13.9599 8.99858Z" fill="white"/>
<path fill-rule="evenodd" clip-rule="evenodd" d="M17.7929 9.20711C17.4024 8.81658 17.4024 8.18342 17.7929 7.79289C18.1834 7.40237 18.8166 7.40237 19.2071 7.79289L22.7071 11.2929C23.0976 11.6834 23.0976 12.3166 22.7071 12.7071L19.2071 16.2071C18.8166 16.5976 18.1834 16.5976 17.7929 16.2071C17.4024 15.8166 17.4024 15.1834 17.7929 14.7929L19.5858 13L10 13C9.44771 13 9 12.5523 9 12C9 11.4477 9.44771 11 10 11L19.5858 11L17.7929 9.20711Z" fill="white"/>
</svg>
