<svg width="44" height="45" viewBox="0 0 44 45" fill="none" xmlns="http://www.w3.org/2000/svg">
    <rect x="0.5" y="1" width="43" height="43" rx="21.5" fill="white"/>
    <path fill-rule="evenodd" clip-rule="evenodd" d="M22 15.5C21.4696 15.5 20.9609 15.7107 20.5858 16.0858C20.2107 16.4609 20 16.9696 20 17.5C20 18.0304 20.2107 18.5391 20.5858 18.9142C20.9609 19.2893 21.4696 19.5 22 19.5C22.5304 19.5 23.0391 19.2893 23.4142 18.9142C23.7893 18.5391 24 18.0304 24 17.5C24 16.9696 23.7893 16.4609 23.4142 16.0858C23.0391 15.7107 22.5304 15.5 22 15.5ZM19.1716 14.6716C19.9217 13.9214 20.9391 13.5 22 13.5C23.0609 13.5 24.0783 13.9214 24.8284 14.6716C25.5786 15.4217 26 16.4391 26 17.5C26 18.5609 25.5786 19.5783 24.8284 20.3284C24.0783 21.0786 23.0609 21.5 22 21.5C20.9391 21.5 19.9217 21.0786 19.1716 20.3284C18.4214 19.5783 18 18.5609 18 17.5C18 16.4391 18.4214 15.4217 19.1716 14.6716ZM15 19.5C14.7348 19.5 14.4804 19.6053 14.2929 19.7929C14.1054 19.9804 14 20.2348 14 20.5C14 20.7652 14.1054 21.0196 14.2929 21.2071C14.4804 21.3946 14.7348 21.5 15 21.5C15.2652 21.5 15.5196 21.3946 15.7071 21.2071C15.8946 21.0196 16 20.7652 16 20.5C16 20.2348 15.8946 19.9804 15.7071 19.7929C15.5196 19.6053 15.2652 19.5 15 19.5ZM12.8787 18.3787C13.4413 17.8161 14.2043 17.5 15 17.5C15.7957 17.5 16.5587 17.8161 17.1213 18.3787C17.6839 18.9413 18 19.7043 18 20.5C18 21.2956 17.6839 22.0587 17.1213 22.6213C16.5587 23.1839 15.7957 23.5 15 23.5C14.2043 23.5 13.4413 23.1839 12.8787 22.6213C12.3161 22.0587 12 21.2956 12 20.5C12 19.7043 12.3161 18.9413 12.8787 18.3787ZM29 19.5C28.7348 19.5 28.4804 19.6053 28.2929 19.7929C28.1054 19.9804 28 20.2348 28 20.5C28 20.7652 28.1054 21.0196 28.2929 21.2071C28.4804 21.3946 28.7348 21.5 29 21.5C29.2652 21.5 29.5196 21.3946 29.7071 21.2071C29.8946 21.0196 30 20.7652 30 20.5C30 20.2348 29.8946 19.9804 29.7071 19.7929C29.5196 19.6053 29.2652 19.5 29 19.5ZM26.8787 18.3787C27.4413 17.8161 28.2043 17.5 29 17.5C29.7957 17.5 30.5587 17.8161 31.1213 18.3787C31.6839 18.9413 32 19.7043 32 20.5C32 21.2956 31.6839 22.0587 31.1213 22.6213C30.5587 23.1839 29.7957 23.5 29 23.5C28.2043 23.5 27.4413 23.1839 26.8787 22.6213C26.3161 22.0587 26 21.2956 26 20.5C26 19.7043 26.3161 18.9413 26.8787 18.3787ZM22 24.4993C21.2003 24.4993 20.4189 24.7389 19.7566 25.1872C19.1323 25.6098 18.6408 26.1996 18.3377 26.8878L18.0966 29.5H25.9034L25.6623 26.8878C25.3592 26.1996 24.8677 25.6098 24.2434 25.1872C23.5811 24.7389 22.7997 24.4993 22 24.4993ZM28 29.5H31V28.5001C31 28.5 31 28.5001 31 28.5001C31 28.0844 30.8704 27.6791 30.6294 27.3405C30.3884 27.0019 30.0479 26.7467 29.6552 26.6106C29.2625 26.4744 28.8371 26.464 28.4382 26.5807C28.2014 26.65 27.981 26.7621 27.7871 26.91C27.9262 27.4175 28 27.951 28 28.5V29.5ZM26.9298 25.0776C26.51 24.4732 25.9804 23.9479 25.3646 23.531C24.3713 22.8586 23.1994 22.4993 22 22.4993C20.8006 22.4993 19.6287 22.8586 18.6354 23.531C18.0196 23.9479 17.49 24.4732 17.0702 25.0776C16.7758 24.8995 16.4578 24.7591 16.1237 24.6613C15.3258 24.4278 14.4751 24.4486 13.6897 24.7209C12.9042 24.9932 12.2232 25.5035 11.7411 26.1808C11.2591 26.858 11.0001 27.6686 11 28.4999V30.5C11 31.0523 11.4477 31.5 12 31.5H32C32.5523 31.5 33 31.0523 33 30.5V28.5C32.9999 27.6687 32.7409 26.858 32.2589 26.1808C31.7768 25.5035 31.0958 24.9932 30.3103 24.7209C29.5249 24.4486 28.6742 24.4278 27.8763 24.6613C27.5422 24.7591 27.2242 24.8995 26.9298 25.0776ZM16.2129 26.91C16.019 26.7621 15.7986 26.65 15.5618 26.5807C15.1629 26.464 14.7375 26.4744 14.3448 26.6106C13.9521 26.7467 13.6116 27.0019 13.3706 27.3405C13.1296 27.6791 13 28.0844 13 28.5C13 28.5 13 28.5 13 28.5V29.5H16V28.5C16 27.951 16.0738 27.4175 16.2129 26.91Z" fill="#4640DE"/>
    <rect x="0.5" y="1" width="43" height="43" rx="21.5" stroke="#D6DDEB"/>
</svg>
